<?xml version="1.0" encoding="utf-8" standalone="no"?>
<!DOCTYPE svg PUBLIC "-//W3C//DTD SVG 1.1//EN"
  "http://www.w3.org/Graphics/SVG/1.1/DTD/svg11.dtd">
<svg xmlns:xlink="http://www.w3.org/1999/xlink" width="568.790625pt" height="277.71175pt" viewBox="0 0 568.790625 277.71175" xmlns="http://www.w3.org/2000/svg" version="1.1">
 <metadata>
  <rdf:RDF xmlns:dc="http://purl.org/dc/elements/1.1/" xmlns:cc="http://creativecommons.org/ns#" xmlns:rdf="http://www.w3.org/1999/02/22-rdf-syntax-ns#">
   <cc:Work>
    <dc:type rdf:resource="http://purl.org/dc/dcmitype/StillImage"/>
    <dc:date>2022-08-16T12:49:35.955436</dc:date>
    <dc:format>image/svg+xml</dc:format>
    <dc:creator>
     <cc:Agent>
      <dc:title>Matplotlib v3.5.2, https://matplotlib.org/</dc:title>
     </cc:Agent>
    </dc:creator>
   </cc:Work>
  </rdf:RDF>
 </metadata>
 <defs>
  <style type="text/css">*{stroke-linejoin: round; stroke-linecap: butt}</style>
 </defs>
 <g id="figure_1">
  <g id="patch_1">
   <path d="M 0 277.71175 
L 568.790625 277.71175 
L 568.790625 0 
L 0 0 
L 0 277.71175 
z
" style="fill: none"/>
  </g>
  <g id="axes_1">
   <g id="patch_2">
    <path d="M 59.690625 240.1555 
L 279.053125 240.1555 
L 279.053125 35.7555 
L 59.690625 35.7555 
z
" style="fill: #ffffff"/>
   </g>
   <g id="patch_3">
    <path d="M 69.661648 240.1555 
L 73.650057 240.1555 
L 73.650057 99.858885 
L 69.661648 99.858885 
z
" clip-path="url(#p0edacf79b4)" style="fill: #66c2a5"/>
   </g>
   <g id="patch_4">
    <path d="M 77.638466 240.1555 
L 81.626875 240.1555 
L 81.626875 173.245585 
L 77.638466 173.245585 
z
" clip-path="url(#p0edacf79b4)" style="fill: #66c2a5"/>
   </g>
   <g id="patch_5">
    <path d="M 85.615284 240.1555 
L 89.603693 240.1555 
L 89.603693 185.37634 
L 85.615284 185.37634 
z
" clip-path="url(#p0edacf79b4)" style="fill: #66c2a5"/>
   </g>
   <g id="patch_6">
    <path d="M 93.592102 240.1555 
L 97.580511 240.1555 
L 97.580511 188.92501 
L 93.592102 188.92501 
z
" clip-path="url(#p0edacf79b4)" style="fill: #66c2a5"/>
   </g>
   <g id="patch_7">
    <path d="M 101.56892 240.1555 
L 105.55733 240.1555 
L 105.55733 189.619116 
L 101.56892 189.619116 
z
" clip-path="url(#p0edacf79b4)" style="fill: #66c2a5"/>
   </g>
   <g id="patch_8">
    <path d="M 109.545739 240.1555 
L 113.534148 240.1555 
L 113.534148 179.432775 
L 109.545739 179.432775 
z
" clip-path="url(#p0edacf79b4)" style="fill: #66c2a5"/>
   </g>
   <g id="patch_9">
    <path d="M 117.522557 240.1555 
L 121.510966 240.1555 
L 121.510966 150.013741 
L 117.522557 150.013741 
z
" clip-path="url(#p0edacf79b4)" style="fill: #66c2a5"/>
   </g>
   <g id="patch_10">
    <path d="M 125.499375 240.1555 
L 129.487784 240.1555 
L 129.487784 144.805653 
L 125.499375 144.805653 
z
" clip-path="url(#p0edacf79b4)" style="fill: #66c2a5"/>
   </g>
   <g id="patch_11">
    <path d="M 133.476193 240.1555 
L 137.464602 240.1555 
L 137.464602 145.747982 
L 133.476193 145.747982 
z
" clip-path="url(#p0edacf79b4)" style="fill: #66c2a5"/>
   </g>
   <g id="patch_12">
    <path d="M 141.453011 240.1555 
L 145.44142 240.1555 
L 145.44142 157.097293 
L 141.453011 157.097293 
z
" clip-path="url(#p0edacf79b4)" style="fill: #66c2a5"/>
   </g>
   <g id="patch_13">
    <path d="M 149.42983 240.1555 
L 153.418239 240.1555 
L 153.418239 156.338834 
L 149.42983 156.338834 
z
" clip-path="url(#p0edacf79b4)" style="fill: #66c2a5"/>
   </g>
   <g id="patch_14">
    <path d="M 157.406648 240.1555 
L 161.395057 240.1555 
L 161.395057 162.392719 
L 157.406648 162.392719 
z
" clip-path="url(#p0edacf79b4)" style="fill: #66c2a5"/>
   </g>
   <g id="patch_15">
    <path d="M 165.383466 240.1555 
L 169.371875 240.1555 
L 169.371875 164.254393 
L 165.383466 164.254393 
z
" clip-path="url(#p0edacf79b4)" style="fill: #66c2a5"/>
   </g>
   <g id="patch_16">
    <path d="M 173.360284 240.1555 
L 177.348693 240.1555 
L 177.348693 179.956802 
L 173.360284 179.956802 
z
" clip-path="url(#p0edacf79b4)" style="fill: #66c2a5"/>
   </g>
   <g id="patch_17">
    <path d="M 181.337102 240.1555 
L 185.325511 240.1555 
L 185.325511 190.607411 
L 181.337102 190.607411 
z
" clip-path="url(#p0edacf79b4)" style="fill: #66c2a5"/>
   </g>
   <g id="patch_18">
    <path d="M 189.31392 240.1555 
L 193.30233 240.1555 
L 193.30233 198.449423 
L 189.31392 198.449423 
z
" clip-path="url(#p0edacf79b4)" style="fill: #66c2a5"/>
   </g>
   <g id="patch_19">
    <path d="M 197.290739 240.1555 
L 201.279148 240.1555 
L 201.279148 206.833847 
L 197.290739 206.833847 
z
" clip-path="url(#p0edacf79b4)" style="fill: #66c2a5"/>
   </g>
   <g id="patch_20">
    <path d="M 205.267557 240.1555 
L 209.255966 240.1555 
L 209.255966 214.49199 
L 205.267557 214.49199 
z
" clip-path="url(#p0edacf79b4)" style="fill: #66c2a5"/>
   </g>
   <g id="patch_21">
    <path d="M 213.244375 240.1555 
L 217.232784 240.1555 
L 217.232784 218.684202 
L 213.244375 218.684202 
z
" clip-path="url(#p0edacf79b4)" style="fill: #66c2a5"/>
   </g>
   <g id="patch_22">
    <path d="M 221.221193 240.1555 
L 225.209602 240.1555 
L 225.209602 225.707996 
L 221.221193 225.707996 
z
" clip-path="url(#p0edacf79b4)" style="fill: #66c2a5"/>
   </g>
   <g id="patch_23">
    <path d="M 229.198011 240.1555 
L 233.18642 240.1555 
L 233.18642 229.316425 
L 229.198011 229.316425 
z
" clip-path="url(#p0edacf79b4)" style="fill: #66c2a5"/>
   </g>
   <g id="patch_24">
    <path d="M 237.17483 240.1555 
L 241.163239 240.1555 
L 241.163239 232.198571 
L 237.17483 232.198571 
z
" clip-path="url(#p0edacf79b4)" style="fill: #66c2a5"/>
   </g>
   <g id="patch_25">
    <path d="M 245.151648 240.1555 
L 249.140057 240.1555 
L 249.140057 233.793634 
L 245.151648 233.793634 
z
" clip-path="url(#p0edacf79b4)" style="fill: #66c2a5"/>
   </g>
   <g id="patch_26">
    <path d="M 253.128466 240.1555 
L 257.116875 240.1555 
L 257.116875 236.289655 
L 253.128466 236.289655 
z
" clip-path="url(#p0edacf79b4)" style="fill: #66c2a5"/>
   </g>
   <g id="patch_27">
    <path d="M 261.105284 240.1555 
L 265.093693 240.1555 
L 265.093693 234.57048 
L 261.105284 234.57048 
z
" clip-path="url(#p0edacf79b4)" style="fill: #66c2a5"/>
   </g>
   <g id="patch_28">
    <path d="M 73.650057 240.1555 
L 77.638466 240.1555 
L 77.638466 45.488833 
L 73.650057 45.488833 
z
" clip-path="url(#p0edacf79b4)" style="fill: #fc8d62"/>
   </g>
   <g id="patch_29">
    <path d="M 81.626875 240.1555 
L 85.615284 240.1555 
L 85.615284 170.974803 
L 81.626875 170.974803 
z
" clip-path="url(#p0edacf79b4)" style="fill: #fc8d62"/>
   </g>
   <g id="patch_30">
    <path d="M 89.603693 240.1555 
L 93.592102 240.1555 
L 93.592102 183.128541 
L 89.603693 183.128541 
z
" clip-path="url(#p0edacf79b4)" style="fill: #fc8d62"/>
   </g>
   <g id="patch_31">
    <path d="M 97.580511 240.1555 
L 101.56892 240.1555 
L 101.56892 187.454059 
L 97.580511 187.454059 
z
" clip-path="url(#p0edacf79b4)" style="fill: #fc8d62"/>
   </g>
   <g id="patch_32">
    <path d="M 105.55733 240.1555 
L 109.545739 240.1555 
L 109.545739 185.560208 
L 105.55733 185.560208 
z
" clip-path="url(#p0edacf79b4)" style="fill: #fc8d62"/>
   </g>
   <g id="patch_33">
    <path d="M 113.534148 240.1555 
L 117.522557 240.1555 
L 117.522557 175.465802 
L 113.534148 175.465802 
z
" clip-path="url(#p0edacf79b4)" style="fill: #fc8d62"/>
   </g>
   <g id="patch_34">
    <path d="M 121.510966 240.1555 
L 125.499375 240.1555 
L 125.499375 146.336362 
L 121.510966 146.336362 
z
" clip-path="url(#p0edacf79b4)" style="fill: #fc8d62"/>
   </g>
   <g id="patch_35">
    <path d="M 129.487784 240.1555 
L 133.476193 240.1555 
L 133.476193 139.151683 
L 129.487784 139.151683 
z
" clip-path="url(#p0edacf79b4)" style="fill: #fc8d62"/>
   </g>
   <g id="patch_36">
    <path d="M 137.464602 240.1555 
L 141.453011 240.1555 
L 141.453011 137.207268 
L 137.464602 137.207268 
z
" clip-path="url(#p0edacf79b4)" style="fill: #fc8d62"/>
   </g>
   <g id="patch_37">
    <path d="M 145.44142 240.1555 
L 149.42983 240.1555 
L 149.42983 144.828637 
L 145.44142 144.828637 
z
" clip-path="url(#p0edacf79b4)" style="fill: #fc8d62"/>
   </g>
   <g id="patch_38">
    <path d="M 153.418239 240.1555 
L 157.406648 240.1555 
L 157.406648 152.068477 
L 153.418239 152.068477 
z
" clip-path="url(#p0edacf79b4)" style="fill: #fc8d62"/>
   </g>
   <g id="patch_39">
    <path d="M 161.395057 240.1555 
L 165.383466 240.1555 
L 165.383466 161.432004 
L 161.395057 161.432004 
z
" clip-path="url(#p0edacf79b4)" style="fill: #fc8d62"/>
   </g>
   <g id="patch_40">
    <path d="M 169.371875 240.1555 
L 173.360284 240.1555 
L 173.360284 166.405659 
L 169.371875 166.405659 
z
" clip-path="url(#p0edacf79b4)" style="fill: #fc8d62"/>
   </g>
   <g id="patch_41">
    <path d="M 177.348693 240.1555 
L 181.337102 240.1555 
L 181.337102 182.236777 
L 177.348693 182.236777 
z
" clip-path="url(#p0edacf79b4)" style="fill: #fc8d62"/>
   </g>
   <g id="patch_42">
    <path d="M 185.325511 240.1555 
L 189.31392 240.1555 
L 189.31392 193.250528 
L 185.325511 193.250528 
z
" clip-path="url(#p0edacf79b4)" style="fill: #fc8d62"/>
   </g>
   <g id="patch_43">
    <path d="M 193.30233 240.1555 
L 197.290739 240.1555 
L 197.290739 203.312757 
L 193.30233 203.312757 
z
" clip-path="url(#p0edacf79b4)" style="fill: #fc8d62"/>
   </g>
   <g id="patch_44">
    <path d="M 201.279148 240.1555 
L 205.267557 240.1555 
L 205.267557 211.995968 
L 201.279148 211.995968 
z
" clip-path="url(#p0edacf79b4)" style="fill: #fc8d62"/>
   </g>
   <g id="patch_45">
    <path d="M 209.255966 240.1555 
L 213.244375 240.1555 
L 213.244375 219.419678 
L 209.255966 219.419678 
z
" clip-path="url(#p0edacf79b4)" style="fill: #fc8d62"/>
   </g>
   <g id="patch_46">
    <path d="M 217.232784 240.1555 
L 221.221193 240.1555 
L 221.221193 223.547536 
L 217.232784 223.547536 
z
" clip-path="url(#p0edacf79b4)" style="fill: #fc8d62"/>
   </g>
   <g id="patch_47">
    <path d="M 225.209602 240.1555 
L 229.198011 240.1555 
L 229.198011 229.868032 
L 225.209602 229.868032 
z
" clip-path="url(#p0edacf79b4)" style="fill: #fc8d62"/>
   </g>
   <g id="patch_48">
    <path d="M 233.18642 240.1555 
L 237.17483 240.1555 
L 237.17483 232.41002 
L 233.18642 232.41002 
z
" clip-path="url(#p0edacf79b4)" style="fill: #fc8d62"/>
   </g>
   <g id="patch_49">
    <path d="M 241.163239 240.1555 
L 245.151648 240.1555 
L 245.151648 234.85088 
L 241.163239 234.85088 
z
" clip-path="url(#p0edacf79b4)" style="fill: #fc8d62"/>
   </g>
   <g id="patch_50">
    <path d="M 249.140057 240.1555 
L 253.128466 240.1555 
L 253.128466 235.88974 
L 249.140057 235.88974 
z
" clip-path="url(#p0edacf79b4)" style="fill: #fc8d62"/>
   </g>
   <g id="patch_51">
    <path d="M 257.116875 240.1555 
L 261.105284 240.1555 
L 261.105284 236.266671 
L 257.116875 236.266671 
z
" clip-path="url(#p0edacf79b4)" style="fill: #fc8d62"/>
   </g>
   <g id="patch_52">
    <path d="M 265.093693 240.1555 
L 269.082102 240.1555 
L 269.082102 237.50319 
L 265.093693 237.50319 
z
" clip-path="url(#p0edacf79b4)" style="fill: #fc8d62"/>
   </g>
   <g id="matplotlib.axis_1">
    <g id="xtick_1">
     <g id="line2d_1">
      <defs>
       <path id="mce863f8177" d="M 0 0 
L 0 3.5 
" style="stroke: #000000; stroke-width: 0.8"/>
      </defs>
      <g>
       <use xlink:href="#mce863f8177" x="68.876528" y="240.1555" style="stroke: #000000; stroke-width: 0.8"/>
      </g>
     </g>
     <g id="text_1">
      <!-- 0 -->
      <g transform="translate(65.695278 254.753938)scale(0.1 -0.1)">
       <defs>
        <path id="DejaVuSans-30" d="M 2034 4250 
Q 1547 4250 1301 3770 
Q 1056 3291 1056 2328 
Q 1056 1369 1301 889 
Q 1547 409 2034 409 
Q 2525 409 2770 889 
Q 3016 1369 3016 2328 
Q 3016 3291 2770 3770 
Q 2525 4250 2034 4250 
z
M 2034 4750 
Q 2819 4750 3233 4129 
Q 3647 3509 3647 2328 
Q 3647 1150 3233 529 
Q 2819 -91 2034 -91 
Q 1250 -91 836 529 
Q 422 1150 422 2328 
Q 422 3509 836 4129 
Q 1250 4750 2034 4750 
z
" transform="scale(0.015625)"/>
       </defs>
       <use xlink:href="#DejaVuSans-30"/>
      </g>
     </g>
    </g>
    <g id="xtick_2">
     <g id="line2d_2">
      <g>
       <use xlink:href="#mce863f8177" x="108.132523" y="240.1555" style="stroke: #000000; stroke-width: 0.8"/>
      </g>
     </g>
     <g id="text_2">
      <!-- 50 -->
      <g transform="translate(101.770023 254.753938)scale(0.1 -0.1)">
       <defs>
        <path id="DejaVuSans-35" d="M 691 4666 
L 3169 4666 
L 3169 4134 
L 1269 4134 
L 1269 2991 
Q 1406 3038 1543 3061 
Q 1681 3084 1819 3084 
Q 2600 3084 3056 2656 
Q 3513 2228 3513 1497 
Q 3513 744 3044 326 
Q 2575 -91 1722 -91 
Q 1428 -91 1123 -41 
Q 819 9 494 109 
L 494 744 
Q 775 591 1075 516 
Q 1375 441 1709 441 
Q 2250 441 2565 725 
Q 2881 1009 2881 1497 
Q 2881 1984 2565 2268 
Q 2250 2553 1709 2553 
Q 1456 2553 1204 2497 
Q 953 2441 691 2322 
L 691 4666 
z
" transform="scale(0.015625)"/>
       </defs>
       <use xlink:href="#DejaVuSans-35"/>
       <use xlink:href="#DejaVuSans-30" x="63.623047"/>
      </g>
     </g>
    </g>
    <g id="xtick_3">
     <g id="line2d_3">
      <g>
       <use xlink:href="#mce863f8177" x="147.388518" y="240.1555" style="stroke: #000000; stroke-width: 0.8"/>
      </g>
     </g>
     <g id="text_3">
      <!-- 100 -->
      <g transform="translate(137.844768 254.753938)scale(0.1 -0.1)">
       <defs>
        <path id="DejaVuSans-31" d="M 794 531 
L 1825 531 
L 1825 4091 
L 703 3866 
L 703 4441 
L 1819 4666 
L 2450 4666 
L 2450 531 
L 3481 531 
L 3481 0 
L 794 0 
L 794 531 
z
" transform="scale(0.015625)"/>
       </defs>
       <use xlink:href="#DejaVuSans-31"/>
       <use xlink:href="#DejaVuSans-30" x="63.623047"/>
       <use xlink:href="#DejaVuSans-30" x="127.246094"/>
      </g>
     </g>
    </g>
    <g id="xtick_4">
     <g id="line2d_4">
      <g>
       <use xlink:href="#mce863f8177" x="186.644513" y="240.1555" style="stroke: #000000; stroke-width: 0.8"/>
      </g>
     </g>
     <g id="text_4">
      <!-- 150 -->
      <g transform="translate(177.100763 254.753938)scale(0.1 -0.1)">
       <use xlink:href="#DejaVuSans-31"/>
       <use xlink:href="#DejaVuSans-35" x="63.623047"/>
       <use xlink:href="#DejaVuSans-30" x="127.246094"/>
      </g>
     </g>
    </g>
    <g id="xtick_5">
     <g id="line2d_5">
      <g>
       <use xlink:href="#mce863f8177" x="225.900508" y="240.1555" style="stroke: #000000; stroke-width: 0.8"/>
      </g>
     </g>
     <g id="text_5">
      <!-- 200 -->
      <g transform="translate(216.356758 254.753938)scale(0.1 -0.1)">
       <defs>
        <path id="DejaVuSans-32" d="M 1228 531 
L 3431 531 
L 3431 0 
L 469 0 
L 469 531 
Q 828 903 1448 1529 
Q 2069 2156 2228 2338 
Q 2531 2678 2651 2914 
Q 2772 3150 2772 3378 
Q 2772 3750 2511 3984 
Q 2250 4219 1831 4219 
Q 1534 4219 1204 4116 
Q 875 4013 500 3803 
L 500 4441 
Q 881 4594 1212 4672 
Q 1544 4750 1819 4750 
Q 2544 4750 2975 4387 
Q 3406 4025 3406 3419 
Q 3406 3131 3298 2873 
Q 3191 2616 2906 2266 
Q 2828 2175 2409 1742 
Q 1991 1309 1228 531 
z
" transform="scale(0.015625)"/>
       </defs>
       <use xlink:href="#DejaVuSans-32"/>
       <use xlink:href="#DejaVuSans-30" x="63.623047"/>
       <use xlink:href="#DejaVuSans-30" x="127.246094"/>
      </g>
     </g>
    </g>
    <g id="xtick_6">
     <g id="line2d_6">
      <g>
       <use xlink:href="#mce863f8177" x="265.156503" y="240.1555" style="stroke: #000000; stroke-width: 0.8"/>
      </g>
     </g>
     <g id="text_6">
      <!-- 250 -->
      <g transform="translate(255.612753 254.753938)scale(0.1 -0.1)">
       <use xlink:href="#DejaVuSans-32"/>
       <use xlink:href="#DejaVuSans-35" x="63.623047"/>
       <use xlink:href="#DejaVuSans-30" x="127.246094"/>
      </g>
     </g>
    </g>
    <g id="text_7">
     <!-- Pixel value -->
     <g transform="translate(142.564844 268.432062)scale(0.1 -0.1)">
      <defs>
       <path id="DejaVuSans-50" d="M 1259 4147 
L 1259 2394 
L 2053 2394 
Q 2494 2394 2734 2622 
Q 2975 2850 2975 3272 
Q 2975 3691 2734 3919 
Q 2494 4147 2053 4147 
L 1259 4147 
z
M 628 4666 
L 2053 4666 
Q 2838 4666 3239 4311 
Q 3641 3956 3641 3272 
Q 3641 2581 3239 2228 
Q 2838 1875 2053 1875 
L 1259 1875 
L 1259 0 
L 628 0 
L 628 4666 
z
" transform="scale(0.015625)"/>
       <path id="DejaVuSans-69" d="M 603 3500 
L 1178 3500 
L 1178 0 
L 603 0 
L 603 3500 
z
M 603 4863 
L 1178 4863 
L 1178 4134 
L 603 4134 
L 603 4863 
z
" transform="scale(0.015625)"/>
       <path id="DejaVuSans-78" d="M 3513 3500 
L 2247 1797 
L 3578 0 
L 2900 0 
L 1881 1375 
L 863 0 
L 184 0 
L 1544 1831 
L 300 3500 
L 978 3500 
L 1906 2253 
L 2834 3500 
L 3513 3500 
z
" transform="scale(0.015625)"/>
       <path id="DejaVuSans-65" d="M 3597 1894 
L 3597 1613 
L 953 1613 
Q 991 1019 1311 708 
Q 1631 397 2203 397 
Q 2534 397 2845 478 
Q 3156 559 3463 722 
L 3463 178 
Q 3153 47 2828 -22 
Q 2503 -91 2169 -91 
Q 1331 -91 842 396 
Q 353 884 353 1716 
Q 353 2575 817 3079 
Q 1281 3584 2069 3584 
Q 2775 3584 3186 3129 
Q 3597 2675 3597 1894 
z
M 3022 2063 
Q 3016 2534 2758 2815 
Q 2500 3097 2075 3097 
Q 1594 3097 1305 2825 
Q 1016 2553 972 2059 
L 3022 2063 
z
" transform="scale(0.015625)"/>
       <path id="DejaVuSans-6c" d="M 603 4863 
L 1178 4863 
L 1178 0 
L 603 0 
L 603 4863 
z
" transform="scale(0.015625)"/>
       <path id="DejaVuSans-20" transform="scale(0.015625)"/>
       <path id="DejaVuSans-76" d="M 191 3500 
L 800 3500 
L 1894 563 
L 2988 3500 
L 3597 3500 
L 2284 0 
L 1503 0 
L 191 3500 
z
" transform="scale(0.015625)"/>
       <path id="DejaVuSans-61" d="M 2194 1759 
Q 1497 1759 1228 1600 
Q 959 1441 959 1056 
Q 959 750 1161 570 
Q 1363 391 1709 391 
Q 2188 391 2477 730 
Q 2766 1069 2766 1631 
L 2766 1759 
L 2194 1759 
z
M 3341 1997 
L 3341 0 
L 2766 0 
L 2766 531 
Q 2569 213 2275 61 
Q 1981 -91 1556 -91 
Q 1019 -91 701 211 
Q 384 513 384 1019 
Q 384 1609 779 1909 
Q 1175 2209 1959 2209 
L 2766 2209 
L 2766 2266 
Q 2766 2663 2505 2880 
Q 2244 3097 1772 3097 
Q 1472 3097 1187 3025 
Q 903 2953 641 2809 
L 641 3341 
Q 956 3463 1253 3523 
Q 1550 3584 1831 3584 
Q 2591 3584 2966 3190 
Q 3341 2797 3341 1997 
z
" transform="scale(0.015625)"/>
       <path id="DejaVuSans-75" d="M 544 1381 
L 544 3500 
L 1119 3500 
L 1119 1403 
Q 1119 906 1312 657 
Q 1506 409 1894 409 
Q 2359 409 2629 706 
Q 2900 1003 2900 1516 
L 2900 3500 
L 3475 3500 
L 3475 0 
L 2900 0 
L 2900 538 
Q 2691 219 2414 64 
Q 2138 -91 1772 -91 
Q 1169 -91 856 284 
Q 544 659 544 1381 
z
M 1991 3584 
L 1991 3584 
z
" transform="scale(0.015625)"/>
      </defs>
      <use xlink:href="#DejaVuSans-50"/>
      <use xlink:href="#DejaVuSans-69" x="58.052734"/>
      <use xlink:href="#DejaVuSans-78" x="85.835938"/>
      <use xlink:href="#DejaVuSans-65" x="141.890625"/>
      <use xlink:href="#DejaVuSans-6c" x="203.414062"/>
      <use xlink:href="#DejaVuSans-20" x="231.197266"/>
      <use xlink:href="#DejaVuSans-76" x="262.984375"/>
      <use xlink:href="#DejaVuSans-61" x="322.164062"/>
      <use xlink:href="#DejaVuSans-6c" x="383.443359"/>
      <use xlink:href="#DejaVuSans-75" x="411.226562"/>
      <use xlink:href="#DejaVuSans-65" x="474.605469"/>
     </g>
    </g>
   </g>
   <g id="matplotlib.axis_2">
    <g id="ytick_1">
     <g id="line2d_7">
      <defs>
       <path id="m4d3f973079" d="M 0 0 
L -3.5 0 
" style="stroke: #000000; stroke-width: 0.8"/>
      </defs>
      <g>
       <use xlink:href="#m4d3f973079" x="59.690625" y="240.1555" style="stroke: #000000; stroke-width: 0.8"/>
      </g>
     </g>
     <g id="text_8">
      <!-- 0 -->
      <g transform="translate(46.328125 243.954719)scale(0.1 -0.1)">
       <use xlink:href="#DejaVuSans-30"/>
      </g>
     </g>
    </g>
    <g id="ytick_2">
     <g id="line2d_8">
      <g>
       <use xlink:href="#m4d3f973079" x="59.690625" y="217.17188" style="stroke: #000000; stroke-width: 0.8"/>
      </g>
     </g>
     <g id="text_9">
      <!-- 5000 -->
      <g transform="translate(27.240625 220.971099)scale(0.1 -0.1)">
       <use xlink:href="#DejaVuSans-35"/>
       <use xlink:href="#DejaVuSans-30" x="63.623047"/>
       <use xlink:href="#DejaVuSans-30" x="127.246094"/>
       <use xlink:href="#DejaVuSans-30" x="190.869141"/>
      </g>
     </g>
    </g>
    <g id="ytick_3">
     <g id="line2d_9">
      <g>
       <use xlink:href="#m4d3f973079" x="59.690625" y="194.18826" style="stroke: #000000; stroke-width: 0.8"/>
      </g>
     </g>
     <g id="text_10">
      <!-- 10000 -->
      <g transform="translate(20.878125 197.987478)scale(0.1 -0.1)">
       <use xlink:href="#DejaVuSans-31"/>
       <use xlink:href="#DejaVuSans-30" x="63.623047"/>
       <use xlink:href="#DejaVuSans-30" x="127.246094"/>
       <use xlink:href="#DejaVuSans-30" x="190.869141"/>
       <use xlink:href="#DejaVuSans-30" x="254.492188"/>
      </g>
     </g>
    </g>
    <g id="ytick_4">
     <g id="line2d_10">
      <g>
       <use xlink:href="#m4d3f973079" x="59.690625" y="171.204639" style="stroke: #000000; stroke-width: 0.8"/>
      </g>
     </g>
     <g id="text_11">
      <!-- 15000 -->
      <g transform="translate(20.878125 175.003858)scale(0.1 -0.1)">
       <use xlink:href="#DejaVuSans-31"/>
       <use xlink:href="#DejaVuSans-35" x="63.623047"/>
       <use xlink:href="#DejaVuSans-30" x="127.246094"/>
       <use xlink:href="#DejaVuSans-30" x="190.869141"/>
       <use xlink:href="#DejaVuSans-30" x="254.492188"/>
      </g>
     </g>
    </g>
    <g id="ytick_5">
     <g id="line2d_11">
      <g>
       <use xlink:href="#m4d3f973079" x="59.690625" y="148.221019" style="stroke: #000000; stroke-width: 0.8"/>
      </g>
     </g>
     <g id="text_12">
      <!-- 20000 -->
      <g transform="translate(20.878125 152.020238)scale(0.1 -0.1)">
       <use xlink:href="#DejaVuSans-32"/>
       <use xlink:href="#DejaVuSans-30" x="63.623047"/>
       <use xlink:href="#DejaVuSans-30" x="127.246094"/>
       <use xlink:href="#DejaVuSans-30" x="190.869141"/>
       <use xlink:href="#DejaVuSans-30" x="254.492188"/>
      </g>
     </g>
    </g>
    <g id="ytick_6">
     <g id="line2d_12">
      <g>
       <use xlink:href="#m4d3f973079" x="59.690625" y="125.237399" style="stroke: #000000; stroke-width: 0.8"/>
      </g>
     </g>
     <g id="text_13">
      <!-- 25000 -->
      <g transform="translate(20.878125 129.036618)scale(0.1 -0.1)">
       <use xlink:href="#DejaVuSans-32"/>
       <use xlink:href="#DejaVuSans-35" x="63.623047"/>
       <use xlink:href="#DejaVuSans-30" x="127.246094"/>
       <use xlink:href="#DejaVuSans-30" x="190.869141"/>
       <use xlink:href="#DejaVuSans-30" x="254.492188"/>
      </g>
     </g>
    </g>
    <g id="ytick_7">
     <g id="line2d_13">
      <g>
       <use xlink:href="#m4d3f973079" x="59.690625" y="102.253779" style="stroke: #000000; stroke-width: 0.8"/>
      </g>
     </g>
     <g id="text_14">
      <!-- 30000 -->
      <g transform="translate(20.878125 106.052997)scale(0.1 -0.1)">
       <defs>
        <path id="DejaVuSans-33" d="M 2597 2516 
Q 3050 2419 3304 2112 
Q 3559 1806 3559 1356 
Q 3559 666 3084 287 
Q 2609 -91 1734 -91 
Q 1441 -91 1130 -33 
Q 819 25 488 141 
L 488 750 
Q 750 597 1062 519 
Q 1375 441 1716 441 
Q 2309 441 2620 675 
Q 2931 909 2931 1356 
Q 2931 1769 2642 2001 
Q 2353 2234 1838 2234 
L 1294 2234 
L 1294 2753 
L 1863 2753 
Q 2328 2753 2575 2939 
Q 2822 3125 2822 3475 
Q 2822 3834 2567 4026 
Q 2313 4219 1838 4219 
Q 1578 4219 1281 4162 
Q 984 4106 628 3988 
L 628 4550 
Q 988 4650 1302 4700 
Q 1616 4750 1894 4750 
Q 2613 4750 3031 4423 
Q 3450 4097 3450 3541 
Q 3450 3153 3228 2886 
Q 3006 2619 2597 2516 
z
" transform="scale(0.015625)"/>
       </defs>
       <use xlink:href="#DejaVuSans-33"/>
       <use xlink:href="#DejaVuSans-30" x="63.623047"/>
       <use xlink:href="#DejaVuSans-30" x="127.246094"/>
       <use xlink:href="#DejaVuSans-30" x="190.869141"/>
       <use xlink:href="#DejaVuSans-30" x="254.492188"/>
      </g>
     </g>
    </g>
    <g id="ytick_8">
     <g id="line2d_14">
      <g>
       <use xlink:href="#m4d3f973079" x="59.690625" y="79.270158" style="stroke: #000000; stroke-width: 0.8"/>
      </g>
     </g>
     <g id="text_15">
      <!-- 35000 -->
      <g transform="translate(20.878125 83.069377)scale(0.1 -0.1)">
       <use xlink:href="#DejaVuSans-33"/>
       <use xlink:href="#DejaVuSans-35" x="63.623047"/>
       <use xlink:href="#DejaVuSans-30" x="127.246094"/>
       <use xlink:href="#DejaVuSans-30" x="190.869141"/>
       <use xlink:href="#DejaVuSans-30" x="254.492188"/>
      </g>
     </g>
    </g>
    <g id="ytick_9">
     <g id="line2d_15">
      <g>
       <use xlink:href="#m4d3f973079" x="59.690625" y="56.286538" style="stroke: #000000; stroke-width: 0.8"/>
      </g>
     </g>
     <g id="text_16">
      <!-- 40000 -->
      <g transform="translate(20.878125 60.085757)scale(0.1 -0.1)">
       <defs>
        <path id="DejaVuSans-34" d="M 2419 4116 
L 825 1625 
L 2419 1625 
L 2419 4116 
z
M 2253 4666 
L 3047 4666 
L 3047 1625 
L 3713 1625 
L 3713 1100 
L 3047 1100 
L 3047 0 
L 2419 0 
L 2419 1100 
L 313 1100 
L 313 1709 
L 2253 4666 
z
" transform="scale(0.015625)"/>
       </defs>
       <use xlink:href="#DejaVuSans-34"/>
       <use xlink:href="#DejaVuSans-30" x="63.623047"/>
       <use xlink:href="#DejaVuSans-30" x="127.246094"/>
       <use xlink:href="#DejaVuSans-30" x="190.869141"/>
       <use xlink:href="#DejaVuSans-30" x="254.492188"/>
      </g>
     </g>
    </g>
    <g id="text_17">
     <!-- Number of pixels -->
     <g transform="translate(14.798438 180.475812)rotate(-90)scale(0.1 -0.1)">
      <defs>
       <path id="DejaVuSans-4e" d="M 628 4666 
L 1478 4666 
L 3547 763 
L 3547 4666 
L 4159 4666 
L 4159 0 
L 3309 0 
L 1241 3903 
L 1241 0 
L 628 0 
L 628 4666 
z
" transform="scale(0.015625)"/>
       <path id="DejaVuSans-6d" d="M 3328 2828 
Q 3544 3216 3844 3400 
Q 4144 3584 4550 3584 
Q 5097 3584 5394 3201 
Q 5691 2819 5691 2113 
L 5691 0 
L 5113 0 
L 5113 2094 
Q 5113 2597 4934 2840 
Q 4756 3084 4391 3084 
Q 3944 3084 3684 2787 
Q 3425 2491 3425 1978 
L 3425 0 
L 2847 0 
L 2847 2094 
Q 2847 2600 2669 2842 
Q 2491 3084 2119 3084 
Q 1678 3084 1418 2786 
Q 1159 2488 1159 1978 
L 1159 0 
L 581 0 
L 581 3500 
L 1159 3500 
L 1159 2956 
Q 1356 3278 1631 3431 
Q 1906 3584 2284 3584 
Q 2666 3584 2933 3390 
Q 3200 3197 3328 2828 
z
" transform="scale(0.015625)"/>
       <path id="DejaVuSans-62" d="M 3116 1747 
Q 3116 2381 2855 2742 
Q 2594 3103 2138 3103 
Q 1681 3103 1420 2742 
Q 1159 2381 1159 1747 
Q 1159 1113 1420 752 
Q 1681 391 2138 391 
Q 2594 391 2855 752 
Q 3116 1113 3116 1747 
z
M 1159 2969 
Q 1341 3281 1617 3432 
Q 1894 3584 2278 3584 
Q 2916 3584 3314 3078 
Q 3713 2572 3713 1747 
Q 3713 922 3314 415 
Q 2916 -91 2278 -91 
Q 1894 -91 1617 61 
Q 1341 213 1159 525 
L 1159 0 
L 581 0 
L 581 4863 
L 1159 4863 
L 1159 2969 
z
" transform="scale(0.015625)"/>
       <path id="DejaVuSans-72" d="M 2631 2963 
Q 2534 3019 2420 3045 
Q 2306 3072 2169 3072 
Q 1681 3072 1420 2755 
Q 1159 2438 1159 1844 
L 1159 0 
L 581 0 
L 581 3500 
L 1159 3500 
L 1159 2956 
Q 1341 3275 1631 3429 
Q 1922 3584 2338 3584 
Q 2397 3584 2469 3576 
Q 2541 3569 2628 3553 
L 2631 2963 
z
" transform="scale(0.015625)"/>
       <path id="DejaVuSans-6f" d="M 1959 3097 
Q 1497 3097 1228 2736 
Q 959 2375 959 1747 
Q 959 1119 1226 758 
Q 1494 397 1959 397 
Q 2419 397 2687 759 
Q 2956 1122 2956 1747 
Q 2956 2369 2687 2733 
Q 2419 3097 1959 3097 
z
M 1959 3584 
Q 2709 3584 3137 3096 
Q 3566 2609 3566 1747 
Q 3566 888 3137 398 
Q 2709 -91 1959 -91 
Q 1206 -91 779 398 
Q 353 888 353 1747 
Q 353 2609 779 3096 
Q 1206 3584 1959 3584 
z
" transform="scale(0.015625)"/>
       <path id="DejaVuSans-66" d="M 2375 4863 
L 2375 4384 
L 1825 4384 
Q 1516 4384 1395 4259 
Q 1275 4134 1275 3809 
L 1275 3500 
L 2222 3500 
L 2222 3053 
L 1275 3053 
L 1275 0 
L 697 0 
L 697 3053 
L 147 3053 
L 147 3500 
L 697 3500 
L 697 3744 
Q 697 4328 969 4595 
Q 1241 4863 1831 4863 
L 2375 4863 
z
" transform="scale(0.015625)"/>
       <path id="DejaVuSans-70" d="M 1159 525 
L 1159 -1331 
L 581 -1331 
L 581 3500 
L 1159 3500 
L 1159 2969 
Q 1341 3281 1617 3432 
Q 1894 3584 2278 3584 
Q 2916 3584 3314 3078 
Q 3713 2572 3713 1747 
Q 3713 922 3314 415 
Q 2916 -91 2278 -91 
Q 1894 -91 1617 61 
Q 1341 213 1159 525 
z
M 3116 1747 
Q 3116 2381 2855 2742 
Q 2594 3103 2138 3103 
Q 1681 3103 1420 2742 
Q 1159 2381 1159 1747 
Q 1159 1113 1420 752 
Q 1681 391 2138 391 
Q 2594 391 2855 752 
Q 3116 1113 3116 1747 
z
" transform="scale(0.015625)"/>
       <path id="DejaVuSans-73" d="M 2834 3397 
L 2834 2853 
Q 2591 2978 2328 3040 
Q 2066 3103 1784 3103 
Q 1356 3103 1142 2972 
Q 928 2841 928 2578 
Q 928 2378 1081 2264 
Q 1234 2150 1697 2047 
L 1894 2003 
Q 2506 1872 2764 1633 
Q 3022 1394 3022 966 
Q 3022 478 2636 193 
Q 2250 -91 1575 -91 
Q 1294 -91 989 -36 
Q 684 19 347 128 
L 347 722 
Q 666 556 975 473 
Q 1284 391 1588 391 
Q 1994 391 2212 530 
Q 2431 669 2431 922 
Q 2431 1156 2273 1281 
Q 2116 1406 1581 1522 
L 1381 1569 
Q 847 1681 609 1914 
Q 372 2147 372 2553 
Q 372 3047 722 3315 
Q 1072 3584 1716 3584 
Q 2034 3584 2315 3537 
Q 2597 3491 2834 3397 
z
" transform="scale(0.015625)"/>
      </defs>
      <use xlink:href="#DejaVuSans-4e"/>
      <use xlink:href="#DejaVuSans-75" x="74.804688"/>
      <use xlink:href="#DejaVuSans-6d" x="138.183594"/>
      <use xlink:href="#DejaVuSans-62" x="235.595703"/>
      <use xlink:href="#DejaVuSans-65" x="299.072266"/>
      <use xlink:href="#DejaVuSans-72" x="360.595703"/>
      <use xlink:href="#DejaVuSans-20" x="401.708984"/>
      <use xlink:href="#DejaVuSans-6f" x="433.496094"/>
      <use xlink:href="#DejaVuSans-66" x="494.677734"/>
      <use xlink:href="#DejaVuSans-20" x="529.882812"/>
      <use xlink:href="#DejaVuSans-70" x="561.669922"/>
      <use xlink:href="#DejaVuSans-69" x="625.146484"/>
      <use xlink:href="#DejaVuSans-78" x="652.929688"/>
      <use xlink:href="#DejaVuSans-65" x="708.984375"/>
      <use xlink:href="#DejaVuSans-6c" x="770.507812"/>
      <use xlink:href="#DejaVuSans-73" x="798.291016"/>
     </g>
    </g>
   </g>
   <g id="patch_53">
    <path d="M 59.690625 240.1555 
L 59.690625 35.7555 
" style="fill: none; stroke: #000000; stroke-width: 0.8; stroke-linejoin: miter; stroke-linecap: square"/>
   </g>
   <g id="patch_54">
    <path d="M 279.053125 240.1555 
L 279.053125 35.7555 
" style="fill: none; stroke: #000000; stroke-width: 0.8; stroke-linejoin: miter; stroke-linecap: square"/>
   </g>
   <g id="patch_55">
    <path d="M 59.690625 240.1555 
L 279.053125 240.1555 
" style="fill: none; stroke: #000000; stroke-width: 0.8; stroke-linejoin: miter; stroke-linecap: square"/>
   </g>
   <g id="patch_56">
    <path d="M 59.690625 35.7555 
L 279.053125 35.7555 
" style="fill: none; stroke: #000000; stroke-width: 0.8; stroke-linejoin: miter; stroke-linecap: square"/>
   </g>
   <g id="text_18">
    <!-- Training dataset -->
    <g transform="translate(121.109375 16.318125)scale(0.12 -0.12)">
     <defs>
      <path id="DejaVuSans-54" d="M -19 4666 
L 3928 4666 
L 3928 4134 
L 2272 4134 
L 2272 0 
L 1638 0 
L 1638 4134 
L -19 4134 
L -19 4666 
z
" transform="scale(0.015625)"/>
      <path id="DejaVuSans-6e" d="M 3513 2113 
L 3513 0 
L 2938 0 
L 2938 2094 
Q 2938 2591 2744 2837 
Q 2550 3084 2163 3084 
Q 1697 3084 1428 2787 
Q 1159 2491 1159 1978 
L 1159 0 
L 581 0 
L 581 3500 
L 1159 3500 
L 1159 2956 
Q 1366 3272 1645 3428 
Q 1925 3584 2291 3584 
Q 2894 3584 3203 3211 
Q 3513 2838 3513 2113 
z
" transform="scale(0.015625)"/>
      <path id="DejaVuSans-67" d="M 2906 1791 
Q 2906 2416 2648 2759 
Q 2391 3103 1925 3103 
Q 1463 3103 1205 2759 
Q 947 2416 947 1791 
Q 947 1169 1205 825 
Q 1463 481 1925 481 
Q 2391 481 2648 825 
Q 2906 1169 2906 1791 
z
M 3481 434 
Q 3481 -459 3084 -895 
Q 2688 -1331 1869 -1331 
Q 1566 -1331 1297 -1286 
Q 1028 -1241 775 -1147 
L 775 -588 
Q 1028 -725 1275 -790 
Q 1522 -856 1778 -856 
Q 2344 -856 2625 -561 
Q 2906 -266 2906 331 
L 2906 616 
Q 2728 306 2450 153 
Q 2172 0 1784 0 
Q 1141 0 747 490 
Q 353 981 353 1791 
Q 353 2603 747 3093 
Q 1141 3584 1784 3584 
Q 2172 3584 2450 3431 
Q 2728 3278 2906 2969 
L 2906 3500 
L 3481 3500 
L 3481 434 
z
" transform="scale(0.015625)"/>
      <path id="DejaVuSans-64" d="M 2906 2969 
L 2906 4863 
L 3481 4863 
L 3481 0 
L 2906 0 
L 2906 525 
Q 2725 213 2448 61 
Q 2172 -91 1784 -91 
Q 1150 -91 751 415 
Q 353 922 353 1747 
Q 353 2572 751 3078 
Q 1150 3584 1784 3584 
Q 2172 3584 2448 3432 
Q 2725 3281 2906 2969 
z
M 947 1747 
Q 947 1113 1208 752 
Q 1469 391 1925 391 
Q 2381 391 2643 752 
Q 2906 1113 2906 1747 
Q 2906 2381 2643 2742 
Q 2381 3103 1925 3103 
Q 1469 3103 1208 2742 
Q 947 2381 947 1747 
z
" transform="scale(0.015625)"/>
      <path id="DejaVuSans-74" d="M 1172 4494 
L 1172 3500 
L 2356 3500 
L 2356 3053 
L 1172 3053 
L 1172 1153 
Q 1172 725 1289 603 
Q 1406 481 1766 481 
L 2356 481 
L 2356 0 
L 1766 0 
Q 1100 0 847 248 
Q 594 497 594 1153 
L 594 3053 
L 172 3053 
L 172 3500 
L 594 3500 
L 594 4494 
L 1172 4494 
z
" transform="scale(0.015625)"/>
     </defs>
     <use xlink:href="#DejaVuSans-54"/>
     <use xlink:href="#DejaVuSans-72" x="46.333984"/>
     <use xlink:href="#DejaVuSans-61" x="87.447266"/>
     <use xlink:href="#DejaVuSans-69" x="148.726562"/>
     <use xlink:href="#DejaVuSans-6e" x="176.509766"/>
     <use xlink:href="#DejaVuSans-69" x="239.888672"/>
     <use xlink:href="#DejaVuSans-6e" x="267.671875"/>
     <use xlink:href="#DejaVuSans-67" x="331.050781"/>
     <use xlink:href="#DejaVuSans-20" x="394.527344"/>
     <use xlink:href="#DejaVuSans-64" x="426.314453"/>
     <use xlink:href="#DejaVuSans-61" x="489.791016"/>
     <use xlink:href="#DejaVuSans-74" x="551.070312"/>
     <use xlink:href="#DejaVuSans-61" x="590.279297"/>
     <use xlink:href="#DejaVuSans-73" x="651.558594"/>
     <use xlink:href="#DejaVuSans-65" x="703.658203"/>
     <use xlink:href="#DejaVuSans-74" x="765.181641"/>
    </g>
    <!-- AprilTag 36h11 -->
    <g transform="translate(124.518125 29.7555)scale(0.12 -0.12)">
     <defs>
      <path id="DejaVuSans-41" d="M 2188 4044 
L 1331 1722 
L 3047 1722 
L 2188 4044 
z
M 1831 4666 
L 2547 4666 
L 4325 0 
L 3669 0 
L 3244 1197 
L 1141 1197 
L 716 0 
L 50 0 
L 1831 4666 
z
" transform="scale(0.015625)"/>
      <path id="DejaVuSans-36" d="M 2113 2584 
Q 1688 2584 1439 2293 
Q 1191 2003 1191 1497 
Q 1191 994 1439 701 
Q 1688 409 2113 409 
Q 2538 409 2786 701 
Q 3034 994 3034 1497 
Q 3034 2003 2786 2293 
Q 2538 2584 2113 2584 
z
M 3366 4563 
L 3366 3988 
Q 3128 4100 2886 4159 
Q 2644 4219 2406 4219 
Q 1781 4219 1451 3797 
Q 1122 3375 1075 2522 
Q 1259 2794 1537 2939 
Q 1816 3084 2150 3084 
Q 2853 3084 3261 2657 
Q 3669 2231 3669 1497 
Q 3669 778 3244 343 
Q 2819 -91 2113 -91 
Q 1303 -91 875 529 
Q 447 1150 447 2328 
Q 447 3434 972 4092 
Q 1497 4750 2381 4750 
Q 2619 4750 2861 4703 
Q 3103 4656 3366 4563 
z
" transform="scale(0.015625)"/>
      <path id="DejaVuSans-68" d="M 3513 2113 
L 3513 0 
L 2938 0 
L 2938 2094 
Q 2938 2591 2744 2837 
Q 2550 3084 2163 3084 
Q 1697 3084 1428 2787 
Q 1159 2491 1159 1978 
L 1159 0 
L 581 0 
L 581 4863 
L 1159 4863 
L 1159 2956 
Q 1366 3272 1645 3428 
Q 1925 3584 2291 3584 
Q 2894 3584 3203 3211 
Q 3513 2838 3513 2113 
z
" transform="scale(0.015625)"/>
     </defs>
     <use xlink:href="#DejaVuSans-41"/>
     <use xlink:href="#DejaVuSans-70" x="68.408203"/>
     <use xlink:href="#DejaVuSans-72" x="131.884766"/>
     <use xlink:href="#DejaVuSans-69" x="172.998047"/>
     <use xlink:href="#DejaVuSans-6c" x="200.78125"/>
     <use xlink:href="#DejaVuSans-54" x="228.564453"/>
     <use xlink:href="#DejaVuSans-61" x="273.148438"/>
     <use xlink:href="#DejaVuSans-67" x="334.427734"/>
     <use xlink:href="#DejaVuSans-20" x="397.904297"/>
     <use xlink:href="#DejaVuSans-33" x="429.691406"/>
     <use xlink:href="#DejaVuSans-36" x="493.314453"/>
     <use xlink:href="#DejaVuSans-68" x="556.9375"/>
     <use xlink:href="#DejaVuSans-31" x="620.316406"/>
     <use xlink:href="#DejaVuSans-31" x="683.939453"/>
    </g>
   </g>
   <g id="legend_1">
    <g id="patch_57">
     <path d="M 191.257812 73.11175 
L 272.053125 73.11175 
Q 274.053125 73.11175 274.053125 71.11175 
L 274.053125 42.7555 
Q 274.053125 40.7555 272.053125 40.7555 
L 191.257812 40.7555 
Q 189.257812 40.7555 189.257812 42.7555 
L 189.257812 71.11175 
Q 189.257812 73.11175 191.257812 73.11175 
z
" style="fill: #ffffff; opacity: 0.8; stroke: #cccccc; stroke-linejoin: miter"/>
    </g>
    <g id="patch_58">
     <path d="M 193.257812 52.353938 
L 213.257812 52.353938 
L 213.257812 45.353938 
L 193.257812 45.353938 
z
" style="fill: #66c2a5"/>
    </g>
    <g id="text_19">
     <!-- HR image -->
     <g transform="translate(221.257812 52.353938)scale(0.1 -0.1)">
      <defs>
       <path id="DejaVuSans-48" d="M 628 4666 
L 1259 4666 
L 1259 2753 
L 3553 2753 
L 3553 4666 
L 4184 4666 
L 4184 0 
L 3553 0 
L 3553 2222 
L 1259 2222 
L 1259 0 
L 628 0 
L 628 4666 
z
" transform="scale(0.015625)"/>
       <path id="DejaVuSans-52" d="M 2841 2188 
Q 3044 2119 3236 1894 
Q 3428 1669 3622 1275 
L 4263 0 
L 3584 0 
L 2988 1197 
Q 2756 1666 2539 1819 
Q 2322 1972 1947 1972 
L 1259 1972 
L 1259 0 
L 628 0 
L 628 4666 
L 2053 4666 
Q 2853 4666 3247 4331 
Q 3641 3997 3641 3322 
Q 3641 2881 3436 2590 
Q 3231 2300 2841 2188 
z
M 1259 4147 
L 1259 2491 
L 2053 2491 
Q 2509 2491 2742 2702 
Q 2975 2913 2975 3322 
Q 2975 3731 2742 3939 
Q 2509 4147 2053 4147 
L 1259 4147 
z
" transform="scale(0.015625)"/>
      </defs>
      <use xlink:href="#DejaVuSans-48"/>
      <use xlink:href="#DejaVuSans-52" x="75.195312"/>
      <use xlink:href="#DejaVuSans-20" x="144.677734"/>
      <use xlink:href="#DejaVuSans-69" x="176.464844"/>
      <use xlink:href="#DejaVuSans-6d" x="204.248047"/>
      <use xlink:href="#DejaVuSans-61" x="301.660156"/>
      <use xlink:href="#DejaVuSans-67" x="362.939453"/>
      <use xlink:href="#DejaVuSans-65" x="426.416016"/>
     </g>
    </g>
    <g id="patch_59">
     <path d="M 193.257812 67.032062 
L 213.257812 67.032062 
L 213.257812 60.032062 
L 193.257812 60.032062 
z
" style="fill: #fc8d62"/>
    </g>
    <g id="text_20">
     <!-- SR image -->
     <g transform="translate(221.257812 67.032062)scale(0.1 -0.1)">
      <defs>
       <path id="DejaVuSans-53" d="M 3425 4513 
L 3425 3897 
Q 3066 4069 2747 4153 
Q 2428 4238 2131 4238 
Q 1616 4238 1336 4038 
Q 1056 3838 1056 3469 
Q 1056 3159 1242 3001 
Q 1428 2844 1947 2747 
L 2328 2669 
Q 3034 2534 3370 2195 
Q 3706 1856 3706 1288 
Q 3706 609 3251 259 
Q 2797 -91 1919 -91 
Q 1588 -91 1214 -16 
Q 841 59 441 206 
L 441 856 
Q 825 641 1194 531 
Q 1563 422 1919 422 
Q 2459 422 2753 634 
Q 3047 847 3047 1241 
Q 3047 1584 2836 1778 
Q 2625 1972 2144 2069 
L 1759 2144 
Q 1053 2284 737 2584 
Q 422 2884 422 3419 
Q 422 4038 858 4394 
Q 1294 4750 2059 4750 
Q 2388 4750 2728 4690 
Q 3069 4631 3425 4513 
z
" transform="scale(0.015625)"/>
      </defs>
      <use xlink:href="#DejaVuSans-53"/>
      <use xlink:href="#DejaVuSans-52" x="63.476562"/>
      <use xlink:href="#DejaVuSans-20" x="132.958984"/>
      <use xlink:href="#DejaVuSans-69" x="164.746094"/>
      <use xlink:href="#DejaVuSans-6d" x="192.529297"/>
      <use xlink:href="#DejaVuSans-61" x="289.941406"/>
      <use xlink:href="#DejaVuSans-67" x="351.220703"/>
      <use xlink:href="#DejaVuSans-65" x="414.697266"/>
     </g>
    </g>
   </g>
  </g>
  <g id="axes_2">
   <g id="patch_60">
    <path d="M 342.228125 240.1555 
L 561.590625 240.1555 
L 561.590625 35.7555 
L 342.228125 35.7555 
z
" style="fill: #ffffff"/>
   </g>
   <g id="patch_61">
    <path d="M 352.199148 240.1555 
L 356.187557 240.1555 
L 356.187557 104.464629 
L 352.199148 104.464629 
z
" clip-path="url(#peeb4b5b55f)" style="fill: #66c2a5"/>
   </g>
   <g id="patch_62">
    <path d="M 360.175966 240.1555 
L 364.164375 240.1555 
L 364.164375 168.599975 
L 360.175966 168.599975 
z
" clip-path="url(#peeb4b5b55f)" style="fill: #66c2a5"/>
   </g>
   <g id="patch_63">
    <path d="M 368.152784 240.1555 
L 372.141193 240.1555 
L 372.141193 183.506822 
L 368.152784 183.506822 
z
" clip-path="url(#peeb4b5b55f)" style="fill: #66c2a5"/>
   </g>
   <g id="patch_64">
    <path d="M 376.129602 240.1555 
L 380.118011 240.1555 
L 380.118011 186.135356 
L 376.129602 186.135356 
z
" clip-path="url(#peeb4b5b55f)" style="fill: #66c2a5"/>
   </g>
   <g id="patch_65">
    <path d="M 384.10642 240.1555 
L 388.09483 240.1555 
L 388.09483 182.234664 
L 384.10642 182.234664 
z
" clip-path="url(#peeb4b5b55f)" style="fill: #66c2a5"/>
   </g>
   <g id="patch_66">
    <path d="M 392.083239 240.1555 
L 396.071648 240.1555 
L 396.071648 174.185056 
L 392.083239 174.185056 
z
" clip-path="url(#peeb4b5b55f)" style="fill: #66c2a5"/>
   </g>
   <g id="patch_67">
    <path d="M 400.060057 240.1555 
L 404.048466 240.1555 
L 404.048466 153.724156 
L 400.060057 153.724156 
z
" clip-path="url(#peeb4b5b55f)" style="fill: #66c2a5"/>
   </g>
   <g id="patch_68">
    <path d="M 408.036875 240.1555 
L 412.025284 240.1555 
L 412.025284 146.716209 
L 408.036875 146.716209 
z
" clip-path="url(#peeb4b5b55f)" style="fill: #66c2a5"/>
   </g>
   <g id="patch_69">
    <path d="M 416.013693 240.1555 
L 420.002102 240.1555 
L 420.002102 142.319066 
L 416.013693 142.319066 
z
" clip-path="url(#peeb4b5b55f)" style="fill: #66c2a5"/>
   </g>
   <g id="patch_70">
    <path d="M 423.990511 240.1555 
L 427.97892 240.1555 
L 427.97892 153.444902 
L 423.990511 153.444902 
z
" clip-path="url(#peeb4b5b55f)" style="fill: #66c2a5"/>
   </g>
   <g id="patch_71">
    <path d="M 431.96733 240.1555 
L 435.955739 240.1555 
L 435.955739 155.036207 
L 431.96733 155.036207 
z
" clip-path="url(#peeb4b5b55f)" style="fill: #66c2a5"/>
   </g>
   <g id="patch_72">
    <path d="M 439.944148 240.1555 
L 443.932557 240.1555 
L 443.932557 163.116844 
L 439.944148 163.116844 
z
" clip-path="url(#peeb4b5b55f)" style="fill: #66c2a5"/>
   </g>
   <g id="patch_73">
    <path d="M 447.920966 240.1555 
L 451.909375 240.1555 
L 451.909375 173.42708 
L 447.920966 173.42708 
z
" clip-path="url(#peeb4b5b55f)" style="fill: #66c2a5"/>
   </g>
   <g id="patch_74">
    <path d="M 455.897784 240.1555 
L 459.886193 240.1555 
L 459.886193 189.566191 
L 455.897784 189.566191 
z
" clip-path="url(#peeb4b5b55f)" style="fill: #66c2a5"/>
   </g>
   <g id="patch_75">
    <path d="M 463.874602 240.1555 
L 467.863011 240.1555 
L 467.863011 197.243461 
L 463.874602 197.243461 
z
" clip-path="url(#peeb4b5b55f)" style="fill: #66c2a5"/>
   </g>
   <g id="patch_76">
    <path d="M 471.85142 240.1555 
L 475.83983 240.1555 
L 475.83983 202.562586 
L 471.85142 202.562586 
z
" clip-path="url(#peeb4b5b55f)" style="fill: #66c2a5"/>
   </g>
   <g id="patch_77">
    <path d="M 479.828239 240.1555 
L 483.816648 240.1555 
L 483.816648 208.426921 
L 479.828239 208.426921 
z
" clip-path="url(#peeb4b5b55f)" style="fill: #66c2a5"/>
   </g>
   <g id="patch_78">
    <path d="M 487.805057 240.1555 
L 491.793466 240.1555 
L 491.793466 214.344447 
L 487.805057 214.344447 
z
" clip-path="url(#peeb4b5b55f)" style="fill: #66c2a5"/>
   </g>
   <g id="patch_79">
    <path d="M 495.781875 240.1555 
L 499.770284 240.1555 
L 499.770284 217.039471 
L 495.781875 217.039471 
z
" clip-path="url(#peeb4b5b55f)" style="fill: #66c2a5"/>
   </g>
   <g id="patch_80">
    <path d="M 503.758693 240.1555 
L 507.747102 240.1555 
L 507.747102 224.038552 
L 503.758693 224.038552 
z
" clip-path="url(#peeb4b5b55f)" style="fill: #66c2a5"/>
   </g>
   <g id="patch_81">
    <path d="M 511.735511 240.1555 
L 515.72392 240.1555 
L 515.72392 227.110347 
L 511.735511 227.110347 
z
" clip-path="url(#peeb4b5b55f)" style="fill: #66c2a5"/>
   </g>
   <g id="patch_82">
    <path d="M 519.71233 240.1555 
L 523.700739 240.1555 
L 523.700739 231.175044 
L 519.71233 231.175044 
z
" clip-path="url(#peeb4b5b55f)" style="fill: #66c2a5"/>
   </g>
   <g id="patch_83">
    <path d="M 527.689148 240.1555 
L 531.677557 240.1555 
L 531.677557 233.666168 
L 527.689148 233.666168 
z
" clip-path="url(#peeb4b5b55f)" style="fill: #66c2a5"/>
   </g>
   <g id="patch_84">
    <path d="M 535.665966 240.1555 
L 539.654375 240.1555 
L 539.654375 235.377153 
L 535.665966 235.377153 
z
" clip-path="url(#peeb4b5b55f)" style="fill: #66c2a5"/>
   </g>
   <g id="patch_85">
    <path d="M 543.642784 240.1555 
L 547.631193 240.1555 
L 547.631193 233.945422 
L 543.642784 233.945422 
z
" clip-path="url(#peeb4b5b55f)" style="fill: #66c2a5"/>
   </g>
   <g id="patch_86">
    <path d="M 356.187557 240.1555 
L 360.175966 240.1555 
L 360.175966 45.488833 
L 356.187557 45.488833 
z
" clip-path="url(#peeb4b5b55f)" style="fill: #fc8d62"/>
   </g>
   <g id="patch_87">
    <path d="M 364.164375 240.1555 
L 368.152784 240.1555 
L 368.152784 167.456363 
L 364.164375 167.456363 
z
" clip-path="url(#peeb4b5b55f)" style="fill: #fc8d62"/>
   </g>
   <g id="patch_88">
    <path d="M 372.141193 240.1555 
L 376.129602 240.1555 
L 376.129602 182.110552 
L 372.141193 182.110552 
z
" clip-path="url(#peeb4b5b55f)" style="fill: #fc8d62"/>
   </g>
   <g id="patch_89">
    <path d="M 380.118011 240.1555 
L 384.10642 240.1555 
L 384.10642 185.718691 
L 380.118011 185.718691 
z
" clip-path="url(#peeb4b5b55f)" style="fill: #fc8d62"/>
   </g>
   <g id="patch_90">
    <path d="M 388.09483 240.1555 
L 392.083239 240.1555 
L 392.083239 184.207173 
L 388.09483 184.207173 
z
" clip-path="url(#peeb4b5b55f)" style="fill: #fc8d62"/>
   </g>
   <g id="patch_91">
    <path d="M 396.071648 240.1555 
L 400.060057 240.1555 
L 400.060057 175.177959 
L 396.071648 175.177959 
z
" clip-path="url(#peeb4b5b55f)" style="fill: #fc8d62"/>
   </g>
   <g id="patch_92">
    <path d="M 404.048466 240.1555 
L 408.036875 240.1555 
L 408.036875 153.037102 
L 404.048466 153.037102 
z
" clip-path="url(#peeb4b5b55f)" style="fill: #fc8d62"/>
   </g>
   <g id="patch_93">
    <path d="M 412.025284 240.1555 
L 416.013693 240.1555 
L 416.013693 141.343893 
L 412.025284 141.343893 
z
" clip-path="url(#peeb4b5b55f)" style="fill: #fc8d62"/>
   </g>
   <g id="patch_94">
    <path d="M 420.002102 240.1555 
L 423.990511 240.1555 
L 423.990511 127.944132 
L 420.002102 127.944132 
z
" clip-path="url(#peeb4b5b55f)" style="fill: #fc8d62"/>
   </g>
   <g id="patch_95">
    <path d="M 427.97892 240.1555 
L 431.96733 240.1555 
L 431.96733 123.382982 
L 427.97892 123.382982 
z
" clip-path="url(#peeb4b5b55f)" style="fill: #fc8d62"/>
   </g>
   <g id="patch_96">
    <path d="M 435.955739 240.1555 
L 439.944148 240.1555 
L 439.944148 135.590373 
L 435.955739 135.590373 
z
" clip-path="url(#peeb4b5b55f)" style="fill: #fc8d62"/>
   </g>
   <g id="patch_97">
    <path d="M 443.932557 240.1555 
L 447.920966 240.1555 
L 447.920966 151.086757 
L 443.932557 151.086757 
z
" clip-path="url(#peeb4b5b55f)" style="fill: #fc8d62"/>
   </g>
   <g id="patch_98">
    <path d="M 451.909375 240.1555 
L 455.897784 240.1555 
L 455.897784 163.276417 
L 451.909375 163.276417 
z
" clip-path="url(#peeb4b5b55f)" style="fill: #fc8d62"/>
   </g>
   <g id="patch_99">
    <path d="M 459.886193 240.1555 
L 463.874602 240.1555 
L 463.874602 188.666373 
L 459.886193 188.666373 
z
" clip-path="url(#peeb4b5b55f)" style="fill: #fc8d62"/>
   </g>
   <g id="patch_100">
    <path d="M 467.863011 240.1555 
L 471.85142 240.1555 
L 471.85142 201.928724 
L 467.863011 201.928724 
z
" clip-path="url(#peeb4b5b55f)" style="fill: #fc8d62"/>
   </g>
   <g id="patch_101">
    <path d="M 475.83983 240.1555 
L 479.828239 240.1555 
L 479.828239 212.048358 
L 475.83983 212.048358 
z
" clip-path="url(#peeb4b5b55f)" style="fill: #fc8d62"/>
   </g>
   <g id="patch_102">
    <path d="M 483.816648 240.1555 
L 487.805057 240.1555 
L 487.805057 220.394952 
L 483.816648 220.394952 
z
" clip-path="url(#peeb4b5b55f)" style="fill: #fc8d62"/>
   </g>
   <g id="patch_103">
    <path d="M 491.793466 240.1555 
L 495.781875 240.1555 
L 495.781875 225.572233 
L 491.793466 225.572233 
z
" clip-path="url(#peeb4b5b55f)" style="fill: #fc8d62"/>
   </g>
   <g id="patch_104">
    <path d="M 499.770284 240.1555 
L 503.758693 240.1555 
L 503.758693 229.020799 
L 499.770284 229.020799 
z
" clip-path="url(#peeb4b5b55f)" style="fill: #fc8d62"/>
   </g>
   <g id="patch_105">
    <path d="M 507.747102 240.1555 
L 511.735511 240.1555 
L 511.735511 232.925923 
L 507.747102 232.925923 
z
" clip-path="url(#peeb4b5b55f)" style="fill: #fc8d62"/>
   </g>
   <g id="patch_106">
    <path d="M 515.72392 240.1555 
L 519.71233 240.1555 
L 519.71233 235.208714 
L 515.72392 235.208714 
z
" clip-path="url(#peeb4b5b55f)" style="fill: #fc8d62"/>
   </g>
   <g id="patch_107">
    <path d="M 523.700739 240.1555 
L 527.689148 240.1555 
L 527.689148 236.467574 
L 523.700739 236.467574 
z
" clip-path="url(#peeb4b5b55f)" style="fill: #fc8d62"/>
   </g>
   <g id="patch_108">
    <path d="M 531.677557 240.1555 
L 535.665966 240.1555 
L 535.665966 237.402853 
L 531.677557 237.402853 
z
" clip-path="url(#peeb4b5b55f)" style="fill: #fc8d62"/>
   </g>
   <g id="patch_109">
    <path d="M 539.654375 240.1555 
L 543.642784 240.1555 
L 543.642784 237.761894 
L 539.654375 237.761894 
z
" clip-path="url(#peeb4b5b55f)" style="fill: #fc8d62"/>
   </g>
   <g id="patch_110">
    <path d="M 547.631193 240.1555 
L 551.619602 240.1555 
L 551.619602 238.706039 
L 547.631193 238.706039 
z
" clip-path="url(#peeb4b5b55f)" style="fill: #fc8d62"/>
   </g>
   <g id="matplotlib.axis_3">
    <g id="xtick_7">
     <g id="line2d_16">
      <g>
       <use xlink:href="#mce863f8177" x="351.414028" y="240.1555" style="stroke: #000000; stroke-width: 0.8"/>
      </g>
     </g>
     <g id="text_21">
      <!-- 0 -->
      <g transform="translate(348.232778 254.753938)scale(0.1 -0.1)">
       <use xlink:href="#DejaVuSans-30"/>
      </g>
     </g>
    </g>
    <g id="xtick_8">
     <g id="line2d_17">
      <g>
       <use xlink:href="#mce863f8177" x="390.670023" y="240.1555" style="stroke: #000000; stroke-width: 0.8"/>
      </g>
     </g>
     <g id="text_22">
      <!-- 50 -->
      <g transform="translate(384.307523 254.753938)scale(0.1 -0.1)">
       <use xlink:href="#DejaVuSans-35"/>
       <use xlink:href="#DejaVuSans-30" x="63.623047"/>
      </g>
     </g>
    </g>
    <g id="xtick_9">
     <g id="line2d_18">
      <g>
       <use xlink:href="#mce863f8177" x="429.926018" y="240.1555" style="stroke: #000000; stroke-width: 0.8"/>
      </g>
     </g>
     <g id="text_23">
      <!-- 100 -->
      <g transform="translate(420.382268 254.753938)scale(0.1 -0.1)">
       <use xlink:href="#DejaVuSans-31"/>
       <use xlink:href="#DejaVuSans-30" x="63.623047"/>
       <use xlink:href="#DejaVuSans-30" x="127.246094"/>
      </g>
     </g>
    </g>
    <g id="xtick_10">
     <g id="line2d_19">
      <g>
       <use xlink:href="#mce863f8177" x="469.182013" y="240.1555" style="stroke: #000000; stroke-width: 0.8"/>
      </g>
     </g>
     <g id="text_24">
      <!-- 150 -->
      <g transform="translate(459.638263 254.753938)scale(0.1 -0.1)">
       <use xlink:href="#DejaVuSans-31"/>
       <use xlink:href="#DejaVuSans-35" x="63.623047"/>
       <use xlink:href="#DejaVuSans-30" x="127.246094"/>
      </g>
     </g>
    </g>
    <g id="xtick_11">
     <g id="line2d_20">
      <g>
       <use xlink:href="#mce863f8177" x="508.438008" y="240.1555" style="stroke: #000000; stroke-width: 0.8"/>
      </g>
     </g>
     <g id="text_25">
      <!-- 200 -->
      <g transform="translate(498.894258 254.753938)scale(0.1 -0.1)">
       <use xlink:href="#DejaVuSans-32"/>
       <use xlink:href="#DejaVuSans-30" x="63.623047"/>
       <use xlink:href="#DejaVuSans-30" x="127.246094"/>
      </g>
     </g>
    </g>
    <g id="xtick_12">
     <g id="line2d_21">
      <g>
       <use xlink:href="#mce863f8177" x="547.694003" y="240.1555" style="stroke: #000000; stroke-width: 0.8"/>
      </g>
     </g>
     <g id="text_26">
      <!-- 250 -->
      <g transform="translate(538.150253 254.753938)scale(0.1 -0.1)">
       <use xlink:href="#DejaVuSans-32"/>
       <use xlink:href="#DejaVuSans-35" x="63.623047"/>
       <use xlink:href="#DejaVuSans-30" x="127.246094"/>
      </g>
     </g>
    </g>
    <g id="text_27">
     <!-- Pixel value -->
     <g transform="translate(425.102344 268.432062)scale(0.1 -0.1)">
      <use xlink:href="#DejaVuSans-50"/>
      <use xlink:href="#DejaVuSans-69" x="58.052734"/>
      <use xlink:href="#DejaVuSans-78" x="85.835938"/>
      <use xlink:href="#DejaVuSans-65" x="141.890625"/>
      <use xlink:href="#DejaVuSans-6c" x="203.414062"/>
      <use xlink:href="#DejaVuSans-20" x="231.197266"/>
      <use xlink:href="#DejaVuSans-76" x="262.984375"/>
      <use xlink:href="#DejaVuSans-61" x="322.164062"/>
      <use xlink:href="#DejaVuSans-6c" x="383.443359"/>
      <use xlink:href="#DejaVuSans-75" x="411.226562"/>
      <use xlink:href="#DejaVuSans-65" x="474.605469"/>
     </g>
    </g>
   </g>
   <g id="matplotlib.axis_4">
    <g id="ytick_10">
     <g id="line2d_22">
      <g>
       <use xlink:href="#m4d3f973079" x="342.228125" y="240.1555" style="stroke: #000000; stroke-width: 0.8"/>
      </g>
     </g>
     <g id="text_28">
      <!-- 0 -->
      <g transform="translate(328.865625 243.954719)scale(0.1 -0.1)">
       <use xlink:href="#DejaVuSans-30"/>
      </g>
     </g>
    </g>
    <g id="ytick_11">
     <g id="line2d_23">
      <g>
       <use xlink:href="#m4d3f973079" x="342.228125" y="195.829461" style="stroke: #000000; stroke-width: 0.8"/>
      </g>
     </g>
     <g id="text_29">
      <!-- 10000 -->
      <g transform="translate(303.415625 199.628679)scale(0.1 -0.1)">
       <use xlink:href="#DejaVuSans-31"/>
       <use xlink:href="#DejaVuSans-30" x="63.623047"/>
       <use xlink:href="#DejaVuSans-30" x="127.246094"/>
       <use xlink:href="#DejaVuSans-30" x="190.869141"/>
       <use xlink:href="#DejaVuSans-30" x="254.492188"/>
      </g>
     </g>
    </g>
    <g id="ytick_12">
     <g id="line2d_24">
      <g>
       <use xlink:href="#m4d3f973079" x="342.228125" y="151.503421" style="stroke: #000000; stroke-width: 0.8"/>
      </g>
     </g>
     <g id="text_30">
      <!-- 20000 -->
      <g transform="translate(303.415625 155.30264)scale(0.1 -0.1)">
       <use xlink:href="#DejaVuSans-32"/>
       <use xlink:href="#DejaVuSans-30" x="63.623047"/>
       <use xlink:href="#DejaVuSans-30" x="127.246094"/>
       <use xlink:href="#DejaVuSans-30" x="190.869141"/>
       <use xlink:href="#DejaVuSans-30" x="254.492188"/>
      </g>
     </g>
    </g>
    <g id="ytick_13">
     <g id="line2d_25">
      <g>
       <use xlink:href="#m4d3f973079" x="342.228125" y="107.177382" style="stroke: #000000; stroke-width: 0.8"/>
      </g>
     </g>
     <g id="text_31">
      <!-- 30000 -->
      <g transform="translate(303.415625 110.976601)scale(0.1 -0.1)">
       <use xlink:href="#DejaVuSans-33"/>
       <use xlink:href="#DejaVuSans-30" x="63.623047"/>
       <use xlink:href="#DejaVuSans-30" x="127.246094"/>
       <use xlink:href="#DejaVuSans-30" x="190.869141"/>
       <use xlink:href="#DejaVuSans-30" x="254.492188"/>
      </g>
     </g>
    </g>
    <g id="ytick_14">
     <g id="line2d_26">
      <g>
       <use xlink:href="#m4d3f973079" x="342.228125" y="62.851343" style="stroke: #000000; stroke-width: 0.8"/>
      </g>
     </g>
     <g id="text_32">
      <!-- 40000 -->
      <g transform="translate(303.415625 66.650562)scale(0.1 -0.1)">
       <use xlink:href="#DejaVuSans-34"/>
       <use xlink:href="#DejaVuSans-30" x="63.623047"/>
       <use xlink:href="#DejaVuSans-30" x="127.246094"/>
       <use xlink:href="#DejaVuSans-30" x="190.869141"/>
       <use xlink:href="#DejaVuSans-30" x="254.492188"/>
      </g>
     </g>
    </g>
    <g id="text_33">
     <!-- Number of pixels -->
     <g transform="translate(297.335937 180.475812)rotate(-90)scale(0.1 -0.1)">
      <use xlink:href="#DejaVuSans-4e"/>
      <use xlink:href="#DejaVuSans-75" x="74.804688"/>
      <use xlink:href="#DejaVuSans-6d" x="138.183594"/>
      <use xlink:href="#DejaVuSans-62" x="235.595703"/>
      <use xlink:href="#DejaVuSans-65" x="299.072266"/>
      <use xlink:href="#DejaVuSans-72" x="360.595703"/>
      <use xlink:href="#DejaVuSans-20" x="401.708984"/>
      <use xlink:href="#DejaVuSans-6f" x="433.496094"/>
      <use xlink:href="#DejaVuSans-66" x="494.677734"/>
      <use xlink:href="#DejaVuSans-20" x="529.882812"/>
      <use xlink:href="#DejaVuSans-70" x="561.669922"/>
      <use xlink:href="#DejaVuSans-69" x="625.146484"/>
      <use xlink:href="#DejaVuSans-78" x="652.929688"/>
      <use xlink:href="#DejaVuSans-65" x="708.984375"/>
      <use xlink:href="#DejaVuSans-6c" x="770.507812"/>
      <use xlink:href="#DejaVuSans-73" x="798.291016"/>
     </g>
    </g>
   </g>
   <g id="patch_111">
    <path d="M 342.228125 240.1555 
L 342.228125 35.7555 
" style="fill: none; stroke: #000000; stroke-width: 0.8; stroke-linejoin: miter; stroke-linecap: square"/>
   </g>
   <g id="patch_112">
    <path d="M 561.590625 240.1555 
L 561.590625 35.7555 
" style="fill: none; stroke: #000000; stroke-width: 0.8; stroke-linejoin: miter; stroke-linecap: square"/>
   </g>
   <g id="patch_113">
    <path d="M 342.228125 240.1555 
L 561.590625 240.1555 
" style="fill: none; stroke: #000000; stroke-width: 0.8; stroke-linejoin: miter; stroke-linecap: square"/>
   </g>
   <g id="patch_114">
    <path d="M 342.228125 35.7555 
L 561.590625 35.7555 
" style="fill: none; stroke: #000000; stroke-width: 0.8; stroke-linejoin: miter; stroke-linecap: square"/>
   </g>
   <g id="text_34">
    <!-- Validation dataset -->
    <g transform="translate(397.689062 16.318125)scale(0.12 -0.12)">
     <defs>
      <path id="DejaVuSans-56" d="M 1831 0 
L 50 4666 
L 709 4666 
L 2188 738 
L 3669 4666 
L 4325 4666 
L 2547 0 
L 1831 0 
z
" transform="scale(0.015625)"/>
     </defs>
     <use xlink:href="#DejaVuSans-56"/>
     <use xlink:href="#DejaVuSans-61" x="60.658203"/>
     <use xlink:href="#DejaVuSans-6c" x="121.9375"/>
     <use xlink:href="#DejaVuSans-69" x="149.720703"/>
     <use xlink:href="#DejaVuSans-64" x="177.503906"/>
     <use xlink:href="#DejaVuSans-61" x="240.980469"/>
     <use xlink:href="#DejaVuSans-74" x="302.259766"/>
     <use xlink:href="#DejaVuSans-69" x="341.46875"/>
     <use xlink:href="#DejaVuSans-6f" x="369.251953"/>
     <use xlink:href="#DejaVuSans-6e" x="430.433594"/>
     <use xlink:href="#DejaVuSans-20" x="493.8125"/>
     <use xlink:href="#DejaVuSans-64" x="525.599609"/>
     <use xlink:href="#DejaVuSans-61" x="589.076172"/>
     <use xlink:href="#DejaVuSans-74" x="650.355469"/>
     <use xlink:href="#DejaVuSans-61" x="689.564453"/>
     <use xlink:href="#DejaVuSans-73" x="750.84375"/>
     <use xlink:href="#DejaVuSans-65" x="802.943359"/>
     <use xlink:href="#DejaVuSans-74" x="864.466797"/>
    </g>
    <!-- AprilTag 36h11 -->
    <g transform="translate(407.055625 29.7555)scale(0.12 -0.12)">
     <use xlink:href="#DejaVuSans-41"/>
     <use xlink:href="#DejaVuSans-70" x="68.408203"/>
     <use xlink:href="#DejaVuSans-72" x="131.884766"/>
     <use xlink:href="#DejaVuSans-69" x="172.998047"/>
     <use xlink:href="#DejaVuSans-6c" x="200.78125"/>
     <use xlink:href="#DejaVuSans-54" x="228.564453"/>
     <use xlink:href="#DejaVuSans-61" x="273.148438"/>
     <use xlink:href="#DejaVuSans-67" x="334.427734"/>
     <use xlink:href="#DejaVuSans-20" x="397.904297"/>
     <use xlink:href="#DejaVuSans-33" x="429.691406"/>
     <use xlink:href="#DejaVuSans-36" x="493.314453"/>
     <use xlink:href="#DejaVuSans-68" x="556.9375"/>
     <use xlink:href="#DejaVuSans-31" x="620.316406"/>
     <use xlink:href="#DejaVuSans-31" x="683.939453"/>
    </g>
   </g>
   <g id="legend_2">
    <g id="patch_115">
     <path d="M 473.795312 73.11175 
L 554.590625 73.11175 
Q 556.590625 73.11175 556.590625 71.11175 
L 556.590625 42.7555 
Q 556.590625 40.7555 554.590625 40.7555 
L 473.795312 40.7555 
Q 471.795312 40.7555 471.795312 42.7555 
L 471.795312 71.11175 
Q 471.795312 73.11175 473.795312 73.11175 
z
" style="fill: #ffffff; opacity: 0.8; stroke: #cccccc; stroke-linejoin: miter"/>
    </g>
    <g id="patch_116">
     <path d="M 475.795312 52.353938 
L 495.795312 52.353938 
L 495.795312 45.353938 
L 475.795312 45.353938 
z
" style="fill: #66c2a5"/>
    </g>
    <g id="text_35">
     <!-- HR image -->
     <g transform="translate(503.795312 52.353938)scale(0.1 -0.1)">
      <use xlink:href="#DejaVuSans-48"/>
      <use xlink:href="#DejaVuSans-52" x="75.195312"/>
      <use xlink:href="#DejaVuSans-20" x="144.677734"/>
      <use xlink:href="#DejaVuSans-69" x="176.464844"/>
      <use xlink:href="#DejaVuSans-6d" x="204.248047"/>
      <use xlink:href="#DejaVuSans-61" x="301.660156"/>
      <use xlink:href="#DejaVuSans-67" x="362.939453"/>
      <use xlink:href="#DejaVuSans-65" x="426.416016"/>
     </g>
    </g>
    <g id="patch_117">
     <path d="M 475.795312 67.032062 
L 495.795312 67.032062 
L 495.795312 60.032062 
L 475.795312 60.032062 
z
" style="fill: #fc8d62"/>
    </g>
    <g id="text_36">
     <!-- SR image -->
     <g transform="translate(503.795312 67.032062)scale(0.1 -0.1)">
      <use xlink:href="#DejaVuSans-53"/>
      <use xlink:href="#DejaVuSans-52" x="63.476562"/>
      <use xlink:href="#DejaVuSans-20" x="132.958984"/>
      <use xlink:href="#DejaVuSans-69" x="164.746094"/>
      <use xlink:href="#DejaVuSans-6d" x="192.529297"/>
      <use xlink:href="#DejaVuSans-61" x="289.941406"/>
      <use xlink:href="#DejaVuSans-67" x="351.220703"/>
      <use xlink:href="#DejaVuSans-65" x="414.697266"/>
     </g>
    </g>
   </g>
  </g>
 </g>
 <defs>
  <clipPath id="p0edacf79b4">
   <rect x="59.690625" y="35.7555" width="219.3625" height="204.4"/>
  </clipPath>
  <clipPath id="peeb4b5b55f">
   <rect x="342.228125" y="35.7555" width="219.3625" height="204.4"/>
  </clipPath>
 </defs>
</svg>
