<?xml version="1.0" encoding="utf-8" standalone="no"?>
<!DOCTYPE svg PUBLIC "-//W3C//DTD SVG 1.1//EN"
  "http://www.w3.org/Graphics/SVG/1.1/DTD/svg11.dtd">
<svg xmlns:xlink="http://www.w3.org/1999/xlink" width="856.790625pt" height="277.71175pt" viewBox="0 0 856.790625 277.71175" xmlns="http://www.w3.org/2000/svg" version="1.1">
 <metadata>
  <rdf:RDF xmlns:dc="http://purl.org/dc/elements/1.1/" xmlns:cc="http://creativecommons.org/ns#" xmlns:rdf="http://www.w3.org/1999/02/22-rdf-syntax-ns#">
   <cc:Work>
    <dc:type rdf:resource="http://purl.org/dc/dcmitype/StillImage"/>
    <dc:date>2022-08-16T12:49:36.660205</dc:date>
    <dc:format>image/svg+xml</dc:format>
    <dc:creator>
     <cc:Agent>
      <dc:title>Matplotlib v3.5.2, https://matplotlib.org/</dc:title>
     </cc:Agent>
    </dc:creator>
   </cc:Work>
  </rdf:RDF>
 </metadata>
 <defs>
  <style type="text/css">*{stroke-linejoin: round; stroke-linecap: butt}</style>
 </defs>
 <g id="figure_1">
  <g id="patch_1">
   <path d="M 0 277.71175 
L 856.790625 277.71175 
L 856.790625 0 
L 0 0 
L 0 277.71175 
z
" style="fill: none"/>
  </g>
  <g id="axes_1">
   <g id="patch_2">
    <path d="M 59.690625 240.1555 
L 280.790625 240.1555 
L 280.790625 35.7555 
L 59.690625 35.7555 
z
" style="fill: #ffffff"/>
   </g>
   <g id="patch_3">
    <path d="M 69.740625 240.1555 
L 73.760625 240.1555 
L 73.760625 93.634507 
L 69.740625 93.634507 
z
" clip-path="url(#p3eb9dd29f5)" style="fill: #66c2a5"/>
   </g>
   <g id="patch_4">
    <path d="M 77.780625 240.1555 
L 81.800625 240.1555 
L 81.800625 174.451251 
L 77.780625 174.451251 
z
" clip-path="url(#p3eb9dd29f5)" style="fill: #66c2a5"/>
   </g>
   <g id="patch_5">
    <path d="M 85.820625 240.1555 
L 89.840625 240.1555 
L 89.840625 192.756214 
L 85.820625 192.756214 
z
" clip-path="url(#p3eb9dd29f5)" style="fill: #66c2a5"/>
   </g>
   <g id="patch_6">
    <path d="M 93.860625 240.1555 
L 97.880625 240.1555 
L 97.880625 200.944304 
L 93.860625 200.944304 
z
" clip-path="url(#p3eb9dd29f5)" style="fill: #66c2a5"/>
   </g>
   <g id="patch_7">
    <path d="M 101.900625 240.1555 
L 105.920625 240.1555 
L 105.920625 203.626864 
L 101.900625 203.626864 
z
" clip-path="url(#p3eb9dd29f5)" style="fill: #66c2a5"/>
   </g>
   <g id="patch_8">
    <path d="M 109.940625 240.1555 
L 113.960625 240.1555 
L 113.960625 204.875769 
L 109.940625 204.875769 
z
" clip-path="url(#p3eb9dd29f5)" style="fill: #66c2a5"/>
   </g>
   <g id="patch_9">
    <path d="M 117.980625 240.1555 
L 122.000625 240.1555 
L 122.000625 201.513332 
L 117.980625 201.513332 
z
" clip-path="url(#p3eb9dd29f5)" style="fill: #66c2a5"/>
   </g>
   <g id="patch_10">
    <path d="M 126.020625 240.1555 
L 130.040625 240.1555 
L 130.040625 200.094457 
L 126.020625 200.094457 
z
" clip-path="url(#p3eb9dd29f5)" style="fill: #66c2a5"/>
   </g>
   <g id="patch_11">
    <path d="M 134.060625 240.1555 
L 138.080625 240.1555 
L 138.080625 191.536868 
L 134.060625 191.536868 
z
" clip-path="url(#p3eb9dd29f5)" style="fill: #66c2a5"/>
   </g>
   <g id="patch_12">
    <path d="M 142.100625 240.1555 
L 146.120625 240.1555 
L 146.120625 187.169394 
L 142.100625 187.169394 
z
" clip-path="url(#p3eb9dd29f5)" style="fill: #66c2a5"/>
   </g>
   <g id="patch_13">
    <path d="M 150.140625 240.1555 
L 154.160625 240.1555 
L 154.160625 173.830493 
L 150.140625 173.830493 
z
" clip-path="url(#p3eb9dd29f5)" style="fill: #66c2a5"/>
   </g>
   <g id="patch_14">
    <path d="M 158.180625 240.1555 
L 162.200625 240.1555 
L 162.200625 163.233272 
L 158.180625 163.233272 
z
" clip-path="url(#p3eb9dd29f5)" style="fill: #66c2a5"/>
   </g>
   <g id="patch_15">
    <path d="M 166.220625 240.1555 
L 170.240625 240.1555 
L 170.240625 148.416376 
L 166.220625 148.416376 
z
" clip-path="url(#p3eb9dd29f5)" style="fill: #66c2a5"/>
   </g>
   <g id="patch_16">
    <path d="M 174.260625 240.1555 
L 178.280625 240.1555 
L 178.280625 159.020987 
L 174.260625 159.020987 
z
" clip-path="url(#p3eb9dd29f5)" style="fill: #66c2a5"/>
   </g>
   <g id="patch_17">
    <path d="M 182.300625 240.1555 
L 186.320625 240.1555 
L 186.320625 160.772411 
L 182.300625 160.772411 
z
" clip-path="url(#p3eb9dd29f5)" style="fill: #66c2a5"/>
   </g>
   <g id="patch_18">
    <path d="M 190.340625 240.1555 
L 194.360625 240.1555 
L 194.360625 167.578576 
L 190.340625 167.578576 
z
" clip-path="url(#p3eb9dd29f5)" style="fill: #66c2a5"/>
   </g>
   <g id="patch_19">
    <path d="M 198.380625 240.1555 
L 202.400625 240.1555 
L 202.400625 171.266172 
L 198.380625 171.266172 
z
" clip-path="url(#p3eb9dd29f5)" style="fill: #66c2a5"/>
   </g>
   <g id="patch_20">
    <path d="M 206.420625 240.1555 
L 210.440625 240.1555 
L 210.440625 182.062923 
L 206.420625 182.062923 
z
" clip-path="url(#p3eb9dd29f5)" style="fill: #66c2a5"/>
   </g>
   <g id="patch_21">
    <path d="M 214.460625 240.1555 
L 218.480625 240.1555 
L 218.480625 186.888575 
L 214.460625 186.888575 
z
" clip-path="url(#p3eb9dd29f5)" style="fill: #66c2a5"/>
   </g>
   <g id="patch_22">
    <path d="M 222.500625 240.1555 
L 226.520625 240.1555 
L 226.520625 201.550281 
L 222.500625 201.550281 
z
" clip-path="url(#p3eb9dd29f5)" style="fill: #66c2a5"/>
   </g>
   <g id="patch_23">
    <path d="M 230.540625 240.1555 
L 234.560625 240.1555 
L 234.560625 207.27751 
L 230.540625 207.27751 
z
" clip-path="url(#p3eb9dd29f5)" style="fill: #66c2a5"/>
   </g>
   <g id="patch_24">
    <path d="M 238.580625 240.1555 
L 242.600625 240.1555 
L 242.600625 215.72425 
L 238.580625 215.72425 
z
" clip-path="url(#p3eb9dd29f5)" style="fill: #66c2a5"/>
   </g>
   <g id="patch_25">
    <path d="M 246.620625 240.1555 
L 250.640625 240.1555 
L 250.640625 221.599278 
L 246.620625 221.599278 
z
" clip-path="url(#p3eb9dd29f5)" style="fill: #66c2a5"/>
   </g>
   <g id="patch_26">
    <path d="M 254.660625 240.1555 
L 258.680625 240.1555 
L 258.680625 226.47666 
L 254.660625 226.47666 
z
" clip-path="url(#p3eb9dd29f5)" style="fill: #66c2a5"/>
   </g>
   <g id="patch_27">
    <path d="M 262.700625 240.1555 
L 266.720625 240.1555 
L 266.720625 226.56534 
L 262.700625 226.56534 
z
" clip-path="url(#p3eb9dd29f5)" style="fill: #66c2a5"/>
   </g>
   <g id="patch_28">
    <path d="M 73.760625 240.1555 
L 77.780625 240.1555 
L 77.780625 45.488833 
L 73.760625 45.488833 
z
" clip-path="url(#p3eb9dd29f5)" style="fill: #fc8d62"/>
   </g>
   <g id="patch_29">
    <path d="M 81.800625 240.1555 
L 85.820625 240.1555 
L 85.820625 171.007523 
L 81.800625 171.007523 
z
" clip-path="url(#p3eb9dd29f5)" style="fill: #fc8d62"/>
   </g>
   <g id="patch_30">
    <path d="M 89.840625 240.1555 
L 93.860625 240.1555 
L 93.860625 186.467347 
L 89.840625 186.467347 
z
" clip-path="url(#p3eb9dd29f5)" style="fill: #fc8d62"/>
   </g>
   <g id="patch_31">
    <path d="M 97.880625 240.1555 
L 101.900625 240.1555 
L 101.900625 193.89427 
L 97.880625 193.89427 
z
" clip-path="url(#p3eb9dd29f5)" style="fill: #fc8d62"/>
   </g>
   <g id="patch_32">
    <path d="M 105.920625 240.1555 
L 109.940625 240.1555 
L 109.940625 195.904342 
L 105.920625 195.904342 
z
" clip-path="url(#p3eb9dd29f5)" style="fill: #fc8d62"/>
   </g>
   <g id="patch_33">
    <path d="M 113.960625 240.1555 
L 117.980625 240.1555 
L 117.980625 194.995375 
L 113.960625 194.995375 
z
" clip-path="url(#p3eb9dd29f5)" style="fill: #fc8d62"/>
   </g>
   <g id="patch_34">
    <path d="M 122.000625 240.1555 
L 126.020625 240.1555 
L 126.020625 181.316536 
L 122.000625 181.316536 
z
" clip-path="url(#p3eb9dd29f5)" style="fill: #fc8d62"/>
   </g>
   <g id="patch_35">
    <path d="M 130.040625 240.1555 
L 134.060625 240.1555 
L 134.060625 172.130799 
L 130.040625 172.130799 
z
" clip-path="url(#p3eb9dd29f5)" style="fill: #fc8d62"/>
   </g>
   <g id="patch_36">
    <path d="M 138.080625 240.1555 
L 142.100625 240.1555 
L 142.100625 153.744547 
L 138.080625 153.744547 
z
" clip-path="url(#p3eb9dd29f5)" style="fill: #fc8d62"/>
   </g>
   <g id="patch_37">
    <path d="M 146.120625 240.1555 
L 150.140625 240.1555 
L 150.140625 142.120119 
L 146.120625 142.120119 
z
" clip-path="url(#p3eb9dd29f5)" style="fill: #fc8d62"/>
   </g>
   <g id="patch_38">
    <path d="M 154.160625 240.1555 
L 158.180625 240.1555 
L 158.180625 137.183617 
L 154.160625 137.183617 
z
" clip-path="url(#p3eb9dd29f5)" style="fill: #fc8d62"/>
   </g>
   <g id="patch_39">
    <path d="M 162.200625 240.1555 
L 166.220625 240.1555 
L 166.220625 137.567896 
L 162.200625 137.567896 
z
" clip-path="url(#p3eb9dd29f5)" style="fill: #fc8d62"/>
   </g>
   <g id="patch_40">
    <path d="M 170.240625 240.1555 
L 174.260625 240.1555 
L 174.260625 136.658929 
L 170.240625 136.658929 
z
" clip-path="url(#p3eb9dd29f5)" style="fill: #fc8d62"/>
   </g>
   <g id="patch_41">
    <path d="M 178.280625 240.1555 
L 182.300625 240.1555 
L 182.300625 160.166433 
L 178.280625 160.166433 
z
" clip-path="url(#p3eb9dd29f5)" style="fill: #fc8d62"/>
   </g>
   <g id="patch_42">
    <path d="M 186.320625 240.1555 
L 190.340625 240.1555 
L 190.340625 176.173114 
L 186.320625 176.173114 
z
" clip-path="url(#p3eb9dd29f5)" style="fill: #fc8d62"/>
   </g>
   <g id="patch_43">
    <path d="M 194.360625 240.1555 
L 198.380625 240.1555 
L 198.380625 189.984974 
L 194.360625 189.984974 
z
" clip-path="url(#p3eb9dd29f5)" style="fill: #fc8d62"/>
   </g>
   <g id="patch_44">
    <path d="M 202.400625 240.1555 
L 206.420625 240.1555 
L 206.420625 200.840844 
L 202.400625 200.840844 
z
" clip-path="url(#p3eb9dd29f5)" style="fill: #fc8d62"/>
   </g>
   <g id="patch_45">
    <path d="M 210.440625 240.1555 
L 214.460625 240.1555 
L 214.460625 210.935547 
L 210.440625 210.935547 
z
" clip-path="url(#p3eb9dd29f5)" style="fill: #fc8d62"/>
   </g>
   <g id="patch_46">
    <path d="M 218.480625 240.1555 
L 222.500625 240.1555 
L 222.500625 215.155222 
L 218.480625 215.155222 
z
" clip-path="url(#p3eb9dd29f5)" style="fill: #fc8d62"/>
   </g>
   <g id="patch_47">
    <path d="M 226.520625 240.1555 
L 230.540625 240.1555 
L 230.540625 222.663434 
L 226.520625 222.663434 
z
" clip-path="url(#p3eb9dd29f5)" style="fill: #fc8d62"/>
   </g>
   <g id="patch_48">
    <path d="M 234.560625 240.1555 
L 238.580625 240.1555 
L 238.580625 227.444747 
L 234.560625 227.444747 
z
" clip-path="url(#p3eb9dd29f5)" style="fill: #fc8d62"/>
   </g>
   <g id="patch_49">
    <path d="M 242.600625 240.1555 
L 246.620625 240.1555 
L 246.620625 230.548535 
L 242.600625 230.548535 
z
" clip-path="url(#p3eb9dd29f5)" style="fill: #fc8d62"/>
   </g>
   <g id="patch_50">
    <path d="M 250.640625 240.1555 
L 254.660625 240.1555 
L 254.660625 232.484708 
L 250.640625 232.484708 
z
" clip-path="url(#p3eb9dd29f5)" style="fill: #fc8d62"/>
   </g>
   <g id="patch_51">
    <path d="M 258.680625 240.1555 
L 262.700625 240.1555 
L 262.700625 234.295251 
L 258.680625 234.295251 
z
" clip-path="url(#p3eb9dd29f5)" style="fill: #fc8d62"/>
   </g>
   <g id="patch_52">
    <path d="M 266.720625 240.1555 
L 270.740625 240.1555 
L 270.740625 235.300288 
L 266.720625 235.300288 
z
" clip-path="url(#p3eb9dd29f5)" style="fill: #fc8d62"/>
   </g>
   <g id="matplotlib.axis_1">
    <g id="xtick_1">
     <g id="line2d_1">
      <defs>
       <path id="mc209ffcca5" d="M 0 0 
L 0 3.5 
" style="stroke: #000000; stroke-width: 0.8"/>
      </defs>
      <g>
       <use xlink:href="#mc209ffcca5" x="68.949286" y="240.1555" style="stroke: #000000; stroke-width: 0.8"/>
      </g>
     </g>
     <g id="text_1">
      <!-- 0 -->
      <g transform="translate(65.768036 254.753938)scale(0.1 -0.1)">
       <defs>
        <path id="DejaVuSans-30" d="M 2034 4250 
Q 1547 4250 1301 3770 
Q 1056 3291 1056 2328 
Q 1056 1369 1301 889 
Q 1547 409 2034 409 
Q 2525 409 2770 889 
Q 3016 1369 3016 2328 
Q 3016 3291 2770 3770 
Q 2525 4250 2034 4250 
z
M 2034 4750 
Q 2819 4750 3233 4129 
Q 3647 3509 3647 2328 
Q 3647 1150 3233 529 
Q 2819 -91 2034 -91 
Q 1250 -91 836 529 
Q 422 1150 422 2328 
Q 422 3509 836 4129 
Q 1250 4750 2034 4750 
z
" transform="scale(0.015625)"/>
       </defs>
       <use xlink:href="#DejaVuSans-30"/>
      </g>
     </g>
    </g>
    <g id="xtick_2">
     <g id="line2d_2">
      <g>
       <use xlink:href="#mc209ffcca5" x="108.516216" y="240.1555" style="stroke: #000000; stroke-width: 0.8"/>
      </g>
     </g>
     <g id="text_2">
      <!-- 50 -->
      <g transform="translate(102.153716 254.753938)scale(0.1 -0.1)">
       <defs>
        <path id="DejaVuSans-35" d="M 691 4666 
L 3169 4666 
L 3169 4134 
L 1269 4134 
L 1269 2991 
Q 1406 3038 1543 3061 
Q 1681 3084 1819 3084 
Q 2600 3084 3056 2656 
Q 3513 2228 3513 1497 
Q 3513 744 3044 326 
Q 2575 -91 1722 -91 
Q 1428 -91 1123 -41 
Q 819 9 494 109 
L 494 744 
Q 775 591 1075 516 
Q 1375 441 1709 441 
Q 2250 441 2565 725 
Q 2881 1009 2881 1497 
Q 2881 1984 2565 2268 
Q 2250 2553 1709 2553 
Q 1456 2553 1204 2497 
Q 953 2441 691 2322 
L 691 4666 
z
" transform="scale(0.015625)"/>
       </defs>
       <use xlink:href="#DejaVuSans-35"/>
       <use xlink:href="#DejaVuSans-30" x="63.623047"/>
      </g>
     </g>
    </g>
    <g id="xtick_3">
     <g id="line2d_3">
      <g>
       <use xlink:href="#mc209ffcca5" x="148.083145" y="240.1555" style="stroke: #000000; stroke-width: 0.8"/>
      </g>
     </g>
     <g id="text_3">
      <!-- 100 -->
      <g transform="translate(138.539395 254.753938)scale(0.1 -0.1)">
       <defs>
        <path id="DejaVuSans-31" d="M 794 531 
L 1825 531 
L 1825 4091 
L 703 3866 
L 703 4441 
L 1819 4666 
L 2450 4666 
L 2450 531 
L 3481 531 
L 3481 0 
L 794 0 
L 794 531 
z
" transform="scale(0.015625)"/>
       </defs>
       <use xlink:href="#DejaVuSans-31"/>
       <use xlink:href="#DejaVuSans-30" x="63.623047"/>
       <use xlink:href="#DejaVuSans-30" x="127.246094"/>
      </g>
     </g>
    </g>
    <g id="xtick_4">
     <g id="line2d_4">
      <g>
       <use xlink:href="#mc209ffcca5" x="187.650074" y="240.1555" style="stroke: #000000; stroke-width: 0.8"/>
      </g>
     </g>
     <g id="text_4">
      <!-- 150 -->
      <g transform="translate(178.106324 254.753938)scale(0.1 -0.1)">
       <use xlink:href="#DejaVuSans-31"/>
       <use xlink:href="#DejaVuSans-35" x="63.623047"/>
       <use xlink:href="#DejaVuSans-30" x="127.246094"/>
      </g>
     </g>
    </g>
    <g id="xtick_5">
     <g id="line2d_5">
      <g>
       <use xlink:href="#mc209ffcca5" x="227.217003" y="240.1555" style="stroke: #000000; stroke-width: 0.8"/>
      </g>
     </g>
     <g id="text_5">
      <!-- 200 -->
      <g transform="translate(217.673253 254.753938)scale(0.1 -0.1)">
       <defs>
        <path id="DejaVuSans-32" d="M 1228 531 
L 3431 531 
L 3431 0 
L 469 0 
L 469 531 
Q 828 903 1448 1529 
Q 2069 2156 2228 2338 
Q 2531 2678 2651 2914 
Q 2772 3150 2772 3378 
Q 2772 3750 2511 3984 
Q 2250 4219 1831 4219 
Q 1534 4219 1204 4116 
Q 875 4013 500 3803 
L 500 4441 
Q 881 4594 1212 4672 
Q 1544 4750 1819 4750 
Q 2544 4750 2975 4387 
Q 3406 4025 3406 3419 
Q 3406 3131 3298 2873 
Q 3191 2616 2906 2266 
Q 2828 2175 2409 1742 
Q 1991 1309 1228 531 
z
" transform="scale(0.015625)"/>
       </defs>
       <use xlink:href="#DejaVuSans-32"/>
       <use xlink:href="#DejaVuSans-30" x="63.623047"/>
       <use xlink:href="#DejaVuSans-30" x="127.246094"/>
      </g>
     </g>
    </g>
    <g id="xtick_6">
     <g id="line2d_6">
      <g>
       <use xlink:href="#mc209ffcca5" x="266.783932" y="240.1555" style="stroke: #000000; stroke-width: 0.8"/>
      </g>
     </g>
     <g id="text_6">
      <!-- 250 -->
      <g transform="translate(257.240182 254.753938)scale(0.1 -0.1)">
       <use xlink:href="#DejaVuSans-32"/>
       <use xlink:href="#DejaVuSans-35" x="63.623047"/>
       <use xlink:href="#DejaVuSans-30" x="127.246094"/>
      </g>
     </g>
    </g>
    <g id="text_7">
     <!-- Pixel value -->
     <g transform="translate(143.433594 268.432062)scale(0.1 -0.1)">
      <defs>
       <path id="DejaVuSans-50" d="M 1259 4147 
L 1259 2394 
L 2053 2394 
Q 2494 2394 2734 2622 
Q 2975 2850 2975 3272 
Q 2975 3691 2734 3919 
Q 2494 4147 2053 4147 
L 1259 4147 
z
M 628 4666 
L 2053 4666 
Q 2838 4666 3239 4311 
Q 3641 3956 3641 3272 
Q 3641 2581 3239 2228 
Q 2838 1875 2053 1875 
L 1259 1875 
L 1259 0 
L 628 0 
L 628 4666 
z
" transform="scale(0.015625)"/>
       <path id="DejaVuSans-69" d="M 603 3500 
L 1178 3500 
L 1178 0 
L 603 0 
L 603 3500 
z
M 603 4863 
L 1178 4863 
L 1178 4134 
L 603 4134 
L 603 4863 
z
" transform="scale(0.015625)"/>
       <path id="DejaVuSans-78" d="M 3513 3500 
L 2247 1797 
L 3578 0 
L 2900 0 
L 1881 1375 
L 863 0 
L 184 0 
L 1544 1831 
L 300 3500 
L 978 3500 
L 1906 2253 
L 2834 3500 
L 3513 3500 
z
" transform="scale(0.015625)"/>
       <path id="DejaVuSans-65" d="M 3597 1894 
L 3597 1613 
L 953 1613 
Q 991 1019 1311 708 
Q 1631 397 2203 397 
Q 2534 397 2845 478 
Q 3156 559 3463 722 
L 3463 178 
Q 3153 47 2828 -22 
Q 2503 -91 2169 -91 
Q 1331 -91 842 396 
Q 353 884 353 1716 
Q 353 2575 817 3079 
Q 1281 3584 2069 3584 
Q 2775 3584 3186 3129 
Q 3597 2675 3597 1894 
z
M 3022 2063 
Q 3016 2534 2758 2815 
Q 2500 3097 2075 3097 
Q 1594 3097 1305 2825 
Q 1016 2553 972 2059 
L 3022 2063 
z
" transform="scale(0.015625)"/>
       <path id="DejaVuSans-6c" d="M 603 4863 
L 1178 4863 
L 1178 0 
L 603 0 
L 603 4863 
z
" transform="scale(0.015625)"/>
       <path id="DejaVuSans-20" transform="scale(0.015625)"/>
       <path id="DejaVuSans-76" d="M 191 3500 
L 800 3500 
L 1894 563 
L 2988 3500 
L 3597 3500 
L 2284 0 
L 1503 0 
L 191 3500 
z
" transform="scale(0.015625)"/>
       <path id="DejaVuSans-61" d="M 2194 1759 
Q 1497 1759 1228 1600 
Q 959 1441 959 1056 
Q 959 750 1161 570 
Q 1363 391 1709 391 
Q 2188 391 2477 730 
Q 2766 1069 2766 1631 
L 2766 1759 
L 2194 1759 
z
M 3341 1997 
L 3341 0 
L 2766 0 
L 2766 531 
Q 2569 213 2275 61 
Q 1981 -91 1556 -91 
Q 1019 -91 701 211 
Q 384 513 384 1019 
Q 384 1609 779 1909 
Q 1175 2209 1959 2209 
L 2766 2209 
L 2766 2266 
Q 2766 2663 2505 2880 
Q 2244 3097 1772 3097 
Q 1472 3097 1187 3025 
Q 903 2953 641 2809 
L 641 3341 
Q 956 3463 1253 3523 
Q 1550 3584 1831 3584 
Q 2591 3584 2966 3190 
Q 3341 2797 3341 1997 
z
" transform="scale(0.015625)"/>
       <path id="DejaVuSans-75" d="M 544 1381 
L 544 3500 
L 1119 3500 
L 1119 1403 
Q 1119 906 1312 657 
Q 1506 409 1894 409 
Q 2359 409 2629 706 
Q 2900 1003 2900 1516 
L 2900 3500 
L 3475 3500 
L 3475 0 
L 2900 0 
L 2900 538 
Q 2691 219 2414 64 
Q 2138 -91 1772 -91 
Q 1169 -91 856 284 
Q 544 659 544 1381 
z
M 1991 3584 
L 1991 3584 
z
" transform="scale(0.015625)"/>
      </defs>
      <use xlink:href="#DejaVuSans-50"/>
      <use xlink:href="#DejaVuSans-69" x="58.052734"/>
      <use xlink:href="#DejaVuSans-78" x="85.835938"/>
      <use xlink:href="#DejaVuSans-65" x="141.890625"/>
      <use xlink:href="#DejaVuSans-6c" x="203.414062"/>
      <use xlink:href="#DejaVuSans-20" x="231.197266"/>
      <use xlink:href="#DejaVuSans-76" x="262.984375"/>
      <use xlink:href="#DejaVuSans-61" x="322.164062"/>
      <use xlink:href="#DejaVuSans-6c" x="383.443359"/>
      <use xlink:href="#DejaVuSans-75" x="411.226562"/>
      <use xlink:href="#DejaVuSans-65" x="474.605469"/>
     </g>
    </g>
   </g>
   <g id="matplotlib.axis_2">
    <g id="ytick_1">
     <g id="line2d_7">
      <defs>
       <path id="m3dcd075b06" d="M 0 0 
L -3.5 0 
" style="stroke: #000000; stroke-width: 0.8"/>
      </defs>
      <g>
       <use xlink:href="#m3dcd075b06" x="59.690625" y="240.1555" style="stroke: #000000; stroke-width: 0.8"/>
      </g>
     </g>
     <g id="text_8">
      <!-- 0 -->
      <g transform="translate(46.328125 243.954719)scale(0.1 -0.1)">
       <use xlink:href="#DejaVuSans-30"/>
      </g>
     </g>
    </g>
    <g id="ytick_2">
     <g id="line2d_8">
      <g>
       <use xlink:href="#m3dcd075b06" x="59.690625" y="203.205635" style="stroke: #000000; stroke-width: 0.8"/>
      </g>
     </g>
     <g id="text_9">
      <!-- 5000 -->
      <g transform="translate(27.240625 207.004854)scale(0.1 -0.1)">
       <use xlink:href="#DejaVuSans-35"/>
       <use xlink:href="#DejaVuSans-30" x="63.623047"/>
       <use xlink:href="#DejaVuSans-30" x="127.246094"/>
       <use xlink:href="#DejaVuSans-30" x="190.869141"/>
      </g>
     </g>
    </g>
    <g id="ytick_3">
     <g id="line2d_9">
      <g>
       <use xlink:href="#m3dcd075b06" x="59.690625" y="166.255771" style="stroke: #000000; stroke-width: 0.8"/>
      </g>
     </g>
     <g id="text_10">
      <!-- 10000 -->
      <g transform="translate(20.878125 170.05499)scale(0.1 -0.1)">
       <use xlink:href="#DejaVuSans-31"/>
       <use xlink:href="#DejaVuSans-30" x="63.623047"/>
       <use xlink:href="#DejaVuSans-30" x="127.246094"/>
       <use xlink:href="#DejaVuSans-30" x="190.869141"/>
       <use xlink:href="#DejaVuSans-30" x="254.492188"/>
      </g>
     </g>
    </g>
    <g id="ytick_4">
     <g id="line2d_10">
      <g>
       <use xlink:href="#m3dcd075b06" x="59.690625" y="129.305906" style="stroke: #000000; stroke-width: 0.8"/>
      </g>
     </g>
     <g id="text_11">
      <!-- 15000 -->
      <g transform="translate(20.878125 133.105125)scale(0.1 -0.1)">
       <use xlink:href="#DejaVuSans-31"/>
       <use xlink:href="#DejaVuSans-35" x="63.623047"/>
       <use xlink:href="#DejaVuSans-30" x="127.246094"/>
       <use xlink:href="#DejaVuSans-30" x="190.869141"/>
       <use xlink:href="#DejaVuSans-30" x="254.492188"/>
      </g>
     </g>
    </g>
    <g id="ytick_5">
     <g id="line2d_11">
      <g>
       <use xlink:href="#m3dcd075b06" x="59.690625" y="92.356042" style="stroke: #000000; stroke-width: 0.8"/>
      </g>
     </g>
     <g id="text_12">
      <!-- 20000 -->
      <g transform="translate(20.878125 96.15526)scale(0.1 -0.1)">
       <use xlink:href="#DejaVuSans-32"/>
       <use xlink:href="#DejaVuSans-30" x="63.623047"/>
       <use xlink:href="#DejaVuSans-30" x="127.246094"/>
       <use xlink:href="#DejaVuSans-30" x="190.869141"/>
       <use xlink:href="#DejaVuSans-30" x="254.492188"/>
      </g>
     </g>
    </g>
    <g id="ytick_6">
     <g id="line2d_12">
      <g>
       <use xlink:href="#m3dcd075b06" x="59.690625" y="55.406177" style="stroke: #000000; stroke-width: 0.8"/>
      </g>
     </g>
     <g id="text_13">
      <!-- 25000 -->
      <g transform="translate(20.878125 59.205396)scale(0.1 -0.1)">
       <use xlink:href="#DejaVuSans-32"/>
       <use xlink:href="#DejaVuSans-35" x="63.623047"/>
       <use xlink:href="#DejaVuSans-30" x="127.246094"/>
       <use xlink:href="#DejaVuSans-30" x="190.869141"/>
       <use xlink:href="#DejaVuSans-30" x="254.492188"/>
      </g>
     </g>
    </g>
    <g id="text_14">
     <!-- Number of pixels -->
     <g transform="translate(14.798438 180.475812)rotate(-90)scale(0.1 -0.1)">
      <defs>
       <path id="DejaVuSans-4e" d="M 628 4666 
L 1478 4666 
L 3547 763 
L 3547 4666 
L 4159 4666 
L 4159 0 
L 3309 0 
L 1241 3903 
L 1241 0 
L 628 0 
L 628 4666 
z
" transform="scale(0.015625)"/>
       <path id="DejaVuSans-6d" d="M 3328 2828 
Q 3544 3216 3844 3400 
Q 4144 3584 4550 3584 
Q 5097 3584 5394 3201 
Q 5691 2819 5691 2113 
L 5691 0 
L 5113 0 
L 5113 2094 
Q 5113 2597 4934 2840 
Q 4756 3084 4391 3084 
Q 3944 3084 3684 2787 
Q 3425 2491 3425 1978 
L 3425 0 
L 2847 0 
L 2847 2094 
Q 2847 2600 2669 2842 
Q 2491 3084 2119 3084 
Q 1678 3084 1418 2786 
Q 1159 2488 1159 1978 
L 1159 0 
L 581 0 
L 581 3500 
L 1159 3500 
L 1159 2956 
Q 1356 3278 1631 3431 
Q 1906 3584 2284 3584 
Q 2666 3584 2933 3390 
Q 3200 3197 3328 2828 
z
" transform="scale(0.015625)"/>
       <path id="DejaVuSans-62" d="M 3116 1747 
Q 3116 2381 2855 2742 
Q 2594 3103 2138 3103 
Q 1681 3103 1420 2742 
Q 1159 2381 1159 1747 
Q 1159 1113 1420 752 
Q 1681 391 2138 391 
Q 2594 391 2855 752 
Q 3116 1113 3116 1747 
z
M 1159 2969 
Q 1341 3281 1617 3432 
Q 1894 3584 2278 3584 
Q 2916 3584 3314 3078 
Q 3713 2572 3713 1747 
Q 3713 922 3314 415 
Q 2916 -91 2278 -91 
Q 1894 -91 1617 61 
Q 1341 213 1159 525 
L 1159 0 
L 581 0 
L 581 4863 
L 1159 4863 
L 1159 2969 
z
" transform="scale(0.015625)"/>
       <path id="DejaVuSans-72" d="M 2631 2963 
Q 2534 3019 2420 3045 
Q 2306 3072 2169 3072 
Q 1681 3072 1420 2755 
Q 1159 2438 1159 1844 
L 1159 0 
L 581 0 
L 581 3500 
L 1159 3500 
L 1159 2956 
Q 1341 3275 1631 3429 
Q 1922 3584 2338 3584 
Q 2397 3584 2469 3576 
Q 2541 3569 2628 3553 
L 2631 2963 
z
" transform="scale(0.015625)"/>
       <path id="DejaVuSans-6f" d="M 1959 3097 
Q 1497 3097 1228 2736 
Q 959 2375 959 1747 
Q 959 1119 1226 758 
Q 1494 397 1959 397 
Q 2419 397 2687 759 
Q 2956 1122 2956 1747 
Q 2956 2369 2687 2733 
Q 2419 3097 1959 3097 
z
M 1959 3584 
Q 2709 3584 3137 3096 
Q 3566 2609 3566 1747 
Q 3566 888 3137 398 
Q 2709 -91 1959 -91 
Q 1206 -91 779 398 
Q 353 888 353 1747 
Q 353 2609 779 3096 
Q 1206 3584 1959 3584 
z
" transform="scale(0.015625)"/>
       <path id="DejaVuSans-66" d="M 2375 4863 
L 2375 4384 
L 1825 4384 
Q 1516 4384 1395 4259 
Q 1275 4134 1275 3809 
L 1275 3500 
L 2222 3500 
L 2222 3053 
L 1275 3053 
L 1275 0 
L 697 0 
L 697 3053 
L 147 3053 
L 147 3500 
L 697 3500 
L 697 3744 
Q 697 4328 969 4595 
Q 1241 4863 1831 4863 
L 2375 4863 
z
" transform="scale(0.015625)"/>
       <path id="DejaVuSans-70" d="M 1159 525 
L 1159 -1331 
L 581 -1331 
L 581 3500 
L 1159 3500 
L 1159 2969 
Q 1341 3281 1617 3432 
Q 1894 3584 2278 3584 
Q 2916 3584 3314 3078 
Q 3713 2572 3713 1747 
Q 3713 922 3314 415 
Q 2916 -91 2278 -91 
Q 1894 -91 1617 61 
Q 1341 213 1159 525 
z
M 3116 1747 
Q 3116 2381 2855 2742 
Q 2594 3103 2138 3103 
Q 1681 3103 1420 2742 
Q 1159 2381 1159 1747 
Q 1159 1113 1420 752 
Q 1681 391 2138 391 
Q 2594 391 2855 752 
Q 3116 1113 3116 1747 
z
" transform="scale(0.015625)"/>
       <path id="DejaVuSans-73" d="M 2834 3397 
L 2834 2853 
Q 2591 2978 2328 3040 
Q 2066 3103 1784 3103 
Q 1356 3103 1142 2972 
Q 928 2841 928 2578 
Q 928 2378 1081 2264 
Q 1234 2150 1697 2047 
L 1894 2003 
Q 2506 1872 2764 1633 
Q 3022 1394 3022 966 
Q 3022 478 2636 193 
Q 2250 -91 1575 -91 
Q 1294 -91 989 -36 
Q 684 19 347 128 
L 347 722 
Q 666 556 975 473 
Q 1284 391 1588 391 
Q 1994 391 2212 530 
Q 2431 669 2431 922 
Q 2431 1156 2273 1281 
Q 2116 1406 1581 1522 
L 1381 1569 
Q 847 1681 609 1914 
Q 372 2147 372 2553 
Q 372 3047 722 3315 
Q 1072 3584 1716 3584 
Q 2034 3584 2315 3537 
Q 2597 3491 2834 3397 
z
" transform="scale(0.015625)"/>
      </defs>
      <use xlink:href="#DejaVuSans-4e"/>
      <use xlink:href="#DejaVuSans-75" x="74.804688"/>
      <use xlink:href="#DejaVuSans-6d" x="138.183594"/>
      <use xlink:href="#DejaVuSans-62" x="235.595703"/>
      <use xlink:href="#DejaVuSans-65" x="299.072266"/>
      <use xlink:href="#DejaVuSans-72" x="360.595703"/>
      <use xlink:href="#DejaVuSans-20" x="401.708984"/>
      <use xlink:href="#DejaVuSans-6f" x="433.496094"/>
      <use xlink:href="#DejaVuSans-66" x="494.677734"/>
      <use xlink:href="#DejaVuSans-20" x="529.882812"/>
      <use xlink:href="#DejaVuSans-70" x="561.669922"/>
      <use xlink:href="#DejaVuSans-69" x="625.146484"/>
      <use xlink:href="#DejaVuSans-78" x="652.929688"/>
      <use xlink:href="#DejaVuSans-65" x="708.984375"/>
      <use xlink:href="#DejaVuSans-6c" x="770.507812"/>
      <use xlink:href="#DejaVuSans-73" x="798.291016"/>
     </g>
    </g>
   </g>
   <g id="patch_53">
    <path d="M 59.690625 240.1555 
L 59.690625 35.7555 
" style="fill: none; stroke: #000000; stroke-width: 0.8; stroke-linejoin: miter; stroke-linecap: square"/>
   </g>
   <g id="patch_54">
    <path d="M 280.790625 240.1555 
L 280.790625 35.7555 
" style="fill: none; stroke: #000000; stroke-width: 0.8; stroke-linejoin: miter; stroke-linecap: square"/>
   </g>
   <g id="patch_55">
    <path d="M 59.690625 240.1555 
L 280.790625 240.1555 
" style="fill: none; stroke: #000000; stroke-width: 0.8; stroke-linejoin: miter; stroke-linecap: square"/>
   </g>
   <g id="patch_56">
    <path d="M 59.690625 35.7555 
L 280.790625 35.7555 
" style="fill: none; stroke: #000000; stroke-width: 0.8; stroke-linejoin: miter; stroke-linecap: square"/>
   </g>
   <g id="text_15">
    <!-- Test dataset -->
    <g transform="translate(133.834688 16.318125)scale(0.12 -0.12)">
     <defs>
      <path id="DejaVuSans-54" d="M -19 4666 
L 3928 4666 
L 3928 4134 
L 2272 4134 
L 2272 0 
L 1638 0 
L 1638 4134 
L -19 4134 
L -19 4666 
z
" transform="scale(0.015625)"/>
      <path id="DejaVuSans-74" d="M 1172 4494 
L 1172 3500 
L 2356 3500 
L 2356 3053 
L 1172 3053 
L 1172 1153 
Q 1172 725 1289 603 
Q 1406 481 1766 481 
L 2356 481 
L 2356 0 
L 1766 0 
Q 1100 0 847 248 
Q 594 497 594 1153 
L 594 3053 
L 172 3053 
L 172 3500 
L 594 3500 
L 594 4494 
L 1172 4494 
z
" transform="scale(0.015625)"/>
      <path id="DejaVuSans-64" d="M 2906 2969 
L 2906 4863 
L 3481 4863 
L 3481 0 
L 2906 0 
L 2906 525 
Q 2725 213 2448 61 
Q 2172 -91 1784 -91 
Q 1150 -91 751 415 
Q 353 922 353 1747 
Q 353 2572 751 3078 
Q 1150 3584 1784 3584 
Q 2172 3584 2448 3432 
Q 2725 3281 2906 2969 
z
M 947 1747 
Q 947 1113 1208 752 
Q 1469 391 1925 391 
Q 2381 391 2643 752 
Q 2906 1113 2906 1747 
Q 2906 2381 2643 2742 
Q 2381 3103 1925 3103 
Q 1469 3103 1208 2742 
Q 947 2381 947 1747 
z
" transform="scale(0.015625)"/>
     </defs>
     <use xlink:href="#DejaVuSans-54"/>
     <use xlink:href="#DejaVuSans-65" x="44.083984"/>
     <use xlink:href="#DejaVuSans-73" x="105.607422"/>
     <use xlink:href="#DejaVuSans-74" x="157.707031"/>
     <use xlink:href="#DejaVuSans-20" x="196.916016"/>
     <use xlink:href="#DejaVuSans-64" x="228.703125"/>
     <use xlink:href="#DejaVuSans-61" x="292.179688"/>
     <use xlink:href="#DejaVuSans-74" x="353.458984"/>
     <use xlink:href="#DejaVuSans-61" x="392.667969"/>
     <use xlink:href="#DejaVuSans-73" x="453.947266"/>
     <use xlink:href="#DejaVuSans-65" x="506.046875"/>
     <use xlink:href="#DejaVuSans-74" x="567.570312"/>
    </g>
    <!-- AprilTag 16h5 -->
    <g transform="translate(129.204375 29.7555)scale(0.12 -0.12)">
     <defs>
      <path id="DejaVuSans-41" d="M 2188 4044 
L 1331 1722 
L 3047 1722 
L 2188 4044 
z
M 1831 4666 
L 2547 4666 
L 4325 0 
L 3669 0 
L 3244 1197 
L 1141 1197 
L 716 0 
L 50 0 
L 1831 4666 
z
" transform="scale(0.015625)"/>
      <path id="DejaVuSans-67" d="M 2906 1791 
Q 2906 2416 2648 2759 
Q 2391 3103 1925 3103 
Q 1463 3103 1205 2759 
Q 947 2416 947 1791 
Q 947 1169 1205 825 
Q 1463 481 1925 481 
Q 2391 481 2648 825 
Q 2906 1169 2906 1791 
z
M 3481 434 
Q 3481 -459 3084 -895 
Q 2688 -1331 1869 -1331 
Q 1566 -1331 1297 -1286 
Q 1028 -1241 775 -1147 
L 775 -588 
Q 1028 -725 1275 -790 
Q 1522 -856 1778 -856 
Q 2344 -856 2625 -561 
Q 2906 -266 2906 331 
L 2906 616 
Q 2728 306 2450 153 
Q 2172 0 1784 0 
Q 1141 0 747 490 
Q 353 981 353 1791 
Q 353 2603 747 3093 
Q 1141 3584 1784 3584 
Q 2172 3584 2450 3431 
Q 2728 3278 2906 2969 
L 2906 3500 
L 3481 3500 
L 3481 434 
z
" transform="scale(0.015625)"/>
      <path id="DejaVuSans-36" d="M 2113 2584 
Q 1688 2584 1439 2293 
Q 1191 2003 1191 1497 
Q 1191 994 1439 701 
Q 1688 409 2113 409 
Q 2538 409 2786 701 
Q 3034 994 3034 1497 
Q 3034 2003 2786 2293 
Q 2538 2584 2113 2584 
z
M 3366 4563 
L 3366 3988 
Q 3128 4100 2886 4159 
Q 2644 4219 2406 4219 
Q 1781 4219 1451 3797 
Q 1122 3375 1075 2522 
Q 1259 2794 1537 2939 
Q 1816 3084 2150 3084 
Q 2853 3084 3261 2657 
Q 3669 2231 3669 1497 
Q 3669 778 3244 343 
Q 2819 -91 2113 -91 
Q 1303 -91 875 529 
Q 447 1150 447 2328 
Q 447 3434 972 4092 
Q 1497 4750 2381 4750 
Q 2619 4750 2861 4703 
Q 3103 4656 3366 4563 
z
" transform="scale(0.015625)"/>
      <path id="DejaVuSans-68" d="M 3513 2113 
L 3513 0 
L 2938 0 
L 2938 2094 
Q 2938 2591 2744 2837 
Q 2550 3084 2163 3084 
Q 1697 3084 1428 2787 
Q 1159 2491 1159 1978 
L 1159 0 
L 581 0 
L 581 4863 
L 1159 4863 
L 1159 2956 
Q 1366 3272 1645 3428 
Q 1925 3584 2291 3584 
Q 2894 3584 3203 3211 
Q 3513 2838 3513 2113 
z
" transform="scale(0.015625)"/>
     </defs>
     <use xlink:href="#DejaVuSans-41"/>
     <use xlink:href="#DejaVuSans-70" x="68.408203"/>
     <use xlink:href="#DejaVuSans-72" x="131.884766"/>
     <use xlink:href="#DejaVuSans-69" x="172.998047"/>
     <use xlink:href="#DejaVuSans-6c" x="200.78125"/>
     <use xlink:href="#DejaVuSans-54" x="228.564453"/>
     <use xlink:href="#DejaVuSans-61" x="273.148438"/>
     <use xlink:href="#DejaVuSans-67" x="334.427734"/>
     <use xlink:href="#DejaVuSans-20" x="397.904297"/>
     <use xlink:href="#DejaVuSans-31" x="429.691406"/>
     <use xlink:href="#DejaVuSans-36" x="493.314453"/>
     <use xlink:href="#DejaVuSans-68" x="556.9375"/>
     <use xlink:href="#DejaVuSans-35" x="620.316406"/>
    </g>
   </g>
   <g id="legend_1">
    <g id="patch_57">
     <path d="M 192.995313 73.11175 
L 273.790625 73.11175 
Q 275.790625 73.11175 275.790625 71.11175 
L 275.790625 42.7555 
Q 275.790625 40.7555 273.790625 40.7555 
L 192.995313 40.7555 
Q 190.995313 40.7555 190.995313 42.7555 
L 190.995313 71.11175 
Q 190.995313 73.11175 192.995313 73.11175 
z
" style="fill: #ffffff; opacity: 0.8; stroke: #cccccc; stroke-linejoin: miter"/>
    </g>
    <g id="patch_58">
     <path d="M 194.995313 52.353938 
L 214.995313 52.353938 
L 214.995313 45.353938 
L 194.995313 45.353938 
z
" style="fill: #66c2a5"/>
    </g>
    <g id="text_16">
     <!-- HR image -->
     <g transform="translate(222.995313 52.353938)scale(0.1 -0.1)">
      <defs>
       <path id="DejaVuSans-48" d="M 628 4666 
L 1259 4666 
L 1259 2753 
L 3553 2753 
L 3553 4666 
L 4184 4666 
L 4184 0 
L 3553 0 
L 3553 2222 
L 1259 2222 
L 1259 0 
L 628 0 
L 628 4666 
z
" transform="scale(0.015625)"/>
       <path id="DejaVuSans-52" d="M 2841 2188 
Q 3044 2119 3236 1894 
Q 3428 1669 3622 1275 
L 4263 0 
L 3584 0 
L 2988 1197 
Q 2756 1666 2539 1819 
Q 2322 1972 1947 1972 
L 1259 1972 
L 1259 0 
L 628 0 
L 628 4666 
L 2053 4666 
Q 2853 4666 3247 4331 
Q 3641 3997 3641 3322 
Q 3641 2881 3436 2590 
Q 3231 2300 2841 2188 
z
M 1259 4147 
L 1259 2491 
L 2053 2491 
Q 2509 2491 2742 2702 
Q 2975 2913 2975 3322 
Q 2975 3731 2742 3939 
Q 2509 4147 2053 4147 
L 1259 4147 
z
" transform="scale(0.015625)"/>
      </defs>
      <use xlink:href="#DejaVuSans-48"/>
      <use xlink:href="#DejaVuSans-52" x="75.195312"/>
      <use xlink:href="#DejaVuSans-20" x="144.677734"/>
      <use xlink:href="#DejaVuSans-69" x="176.464844"/>
      <use xlink:href="#DejaVuSans-6d" x="204.248047"/>
      <use xlink:href="#DejaVuSans-61" x="301.660156"/>
      <use xlink:href="#DejaVuSans-67" x="362.939453"/>
      <use xlink:href="#DejaVuSans-65" x="426.416016"/>
     </g>
    </g>
    <g id="patch_59">
     <path d="M 194.995313 67.032062 
L 214.995313 67.032062 
L 214.995313 60.032062 
L 194.995313 60.032062 
z
" style="fill: #fc8d62"/>
    </g>
    <g id="text_17">
     <!-- SR image -->
     <g transform="translate(222.995313 67.032062)scale(0.1 -0.1)">
      <defs>
       <path id="DejaVuSans-53" d="M 3425 4513 
L 3425 3897 
Q 3066 4069 2747 4153 
Q 2428 4238 2131 4238 
Q 1616 4238 1336 4038 
Q 1056 3838 1056 3469 
Q 1056 3159 1242 3001 
Q 1428 2844 1947 2747 
L 2328 2669 
Q 3034 2534 3370 2195 
Q 3706 1856 3706 1288 
Q 3706 609 3251 259 
Q 2797 -91 1919 -91 
Q 1588 -91 1214 -16 
Q 841 59 441 206 
L 441 856 
Q 825 641 1194 531 
Q 1563 422 1919 422 
Q 2459 422 2753 634 
Q 3047 847 3047 1241 
Q 3047 1584 2836 1778 
Q 2625 1972 2144 2069 
L 1759 2144 
Q 1053 2284 737 2584 
Q 422 2884 422 3419 
Q 422 4038 858 4394 
Q 1294 4750 2059 4750 
Q 2388 4750 2728 4690 
Q 3069 4631 3425 4513 
z
" transform="scale(0.015625)"/>
      </defs>
      <use xlink:href="#DejaVuSans-53"/>
      <use xlink:href="#DejaVuSans-52" x="63.476562"/>
      <use xlink:href="#DejaVuSans-20" x="132.958984"/>
      <use xlink:href="#DejaVuSans-69" x="164.746094"/>
      <use xlink:href="#DejaVuSans-6d" x="192.529297"/>
      <use xlink:href="#DejaVuSans-61" x="289.941406"/>
      <use xlink:href="#DejaVuSans-67" x="351.220703"/>
      <use xlink:href="#DejaVuSans-65" x="414.697266"/>
     </g>
    </g>
   </g>
  </g>
  <g id="axes_2">
   <g id="patch_60">
    <path d="M 344.090625 240.1555 
L 565.190625 240.1555 
L 565.190625 35.7555 
L 344.090625 35.7555 
z
" style="fill: #ffffff"/>
   </g>
   <g id="patch_61">
    <path d="M 354.140625 240.1555 
L 358.160625 240.1555 
L 358.160625 151.786116 
L 354.140625 151.786116 
z
" clip-path="url(#pd09510d85e)" style="fill: #66c2a5"/>
   </g>
   <g id="patch_62">
    <path d="M 362.180625 240.1555 
L 366.200625 240.1555 
L 366.200625 195.698119 
L 362.180625 195.698119 
z
" clip-path="url(#pd09510d85e)" style="fill: #66c2a5"/>
   </g>
   <g id="patch_63">
    <path d="M 370.220625 240.1555 
L 374.240625 240.1555 
L 374.240625 209.467975 
L 370.220625 209.467975 
z
" clip-path="url(#pd09510d85e)" style="fill: #66c2a5"/>
   </g>
   <g id="patch_64">
    <path d="M 378.260625 240.1555 
L 382.280625 240.1555 
L 382.280625 213.322217 
L 378.260625 213.322217 
z
" clip-path="url(#pd09510d85e)" style="fill: #66c2a5"/>
   </g>
   <g id="patch_65">
    <path d="M 386.300625 240.1555 
L 390.320625 240.1555 
L 390.320625 215.115739 
L 386.300625 215.115739 
z
" clip-path="url(#pd09510d85e)" style="fill: #66c2a5"/>
   </g>
   <g id="patch_66">
    <path d="M 394.340625 240.1555 
L 398.360625 240.1555 
L 398.360625 214.764355 
L 394.340625 214.764355 
z
" clip-path="url(#pd09510d85e)" style="fill: #66c2a5"/>
   </g>
   <g id="patch_67">
    <path d="M 402.380625 240.1555 
L 406.400625 240.1555 
L 406.400625 208.106362 
L 402.380625 208.106362 
z
" clip-path="url(#pd09510d85e)" style="fill: #66c2a5"/>
   </g>
   <g id="patch_68">
    <path d="M 410.420625 240.1555 
L 414.440625 240.1555 
L 414.440625 207.637851 
L 410.420625 207.637851 
z
" clip-path="url(#pd09510d85e)" style="fill: #66c2a5"/>
   </g>
   <g id="patch_69">
    <path d="M 418.460625 240.1555 
L 422.480625 240.1555 
L 422.480625 201.375165 
L 418.460625 201.375165 
z
" clip-path="url(#pd09510d85e)" style="fill: #66c2a5"/>
   </g>
   <g id="patch_70">
    <path d="M 426.500625 240.1555 
L 430.520625 240.1555 
L 430.520625 198.681222 
L 426.500625 198.681222 
z
" clip-path="url(#pd09510d85e)" style="fill: #66c2a5"/>
   </g>
   <g id="patch_71">
    <path d="M 434.540625 240.1555 
L 438.560625 240.1555 
L 438.560625 191.810935 
L 434.540625 191.810935 
z
" clip-path="url(#pd09510d85e)" style="fill: #66c2a5"/>
   </g>
   <g id="patch_72">
    <path d="M 442.580625 240.1555 
L 446.600625 240.1555 
L 446.600625 189.97349 
L 442.580625 189.97349 
z
" clip-path="url(#pd09510d85e)" style="fill: #66c2a5"/>
   </g>
   <g id="patch_73">
    <path d="M 450.620625 240.1555 
L 454.640625 240.1555 
L 454.640625 182.063693 
L 450.620625 182.063693 
z
" clip-path="url(#pd09510d85e)" style="fill: #66c2a5"/>
   </g>
   <g id="patch_74">
    <path d="M 458.660625 240.1555 
L 462.680625 240.1555 
L 462.680625 188.040879 
L 458.660625 188.040879 
z
" clip-path="url(#pd09510d85e)" style="fill: #66c2a5"/>
   </g>
   <g id="patch_75">
    <path d="M 466.700625 240.1555 
L 470.720625 240.1555 
L 470.720625 185.888653 
L 466.700625 185.888653 
z
" clip-path="url(#pd09510d85e)" style="fill: #66c2a5"/>
   </g>
   <g id="patch_76">
    <path d="M 474.740625 240.1555 
L 478.760625 240.1555 
L 478.760625 191.492494 
L 474.740625 191.492494 
z
" clip-path="url(#pd09510d85e)" style="fill: #66c2a5"/>
   </g>
   <g id="patch_77">
    <path d="M 482.780625 240.1555 
L 486.800625 240.1555 
L 486.800625 197.897929 
L 482.780625 197.897929 
z
" clip-path="url(#pd09510d85e)" style="fill: #66c2a5"/>
   </g>
   <g id="patch_78">
    <path d="M 490.820625 240.1555 
L 494.840625 240.1555 
L 494.840625 207.04123 
L 490.820625 207.04123 
z
" clip-path="url(#pd09510d85e)" style="fill: #66c2a5"/>
   </g>
   <g id="patch_79">
    <path d="M 498.860625 240.1555 
L 502.880625 240.1555 
L 502.880625 213.973741 
L 498.860625 213.973741 
z
" clip-path="url(#pd09510d85e)" style="fill: #66c2a5"/>
   </g>
   <g id="patch_80">
    <path d="M 506.900625 240.1555 
L 510.920625 240.1555 
L 510.920625 221.188091 
L 506.900625 221.188091 
z
" clip-path="url(#pd09510d85e)" style="fill: #66c2a5"/>
   </g>
   <g id="patch_81">
    <path d="M 514.940625 240.1555 
L 518.960625 240.1555 
L 518.960625 225.152141 
L 514.940625 225.152141 
z
" clip-path="url(#pd09510d85e)" style="fill: #66c2a5"/>
   </g>
   <g id="patch_82">
    <path d="M 522.980625 240.1555 
L 527.000625 240.1555 
L 527.000625 228.073019 
L 522.980625 228.073019 
z
" clip-path="url(#pd09510d85e)" style="fill: #66c2a5"/>
   </g>
   <g id="patch_83">
    <path d="M 531.020625 240.1555 
L 535.040625 240.1555 
L 535.040625 231.151288 
L 531.020625 231.151288 
z
" clip-path="url(#pd09510d85e)" style="fill: #66c2a5"/>
   </g>
   <g id="patch_84">
    <path d="M 539.060625 240.1555 
L 543.080625 240.1555 
L 543.080625 233.81961 
L 539.060625 233.81961 
z
" clip-path="url(#pd09510d85e)" style="fill: #66c2a5"/>
   </g>
   <g id="patch_85">
    <path d="M 547.100625 240.1555 
L 551.120625 240.1555 
L 551.120625 233.175406 
L 547.100625 233.175406 
z
" clip-path="url(#pd09510d85e)" style="fill: #66c2a5"/>
   </g>
   <g id="patch_86">
    <path d="M 358.160625 240.1555 
L 362.180625 240.1555 
L 362.180625 45.488833 
L 358.160625 45.488833 
z
" clip-path="url(#pd09510d85e)" style="fill: #fc8d62"/>
   </g>
   <g id="patch_87">
    <path d="M 366.200625 240.1555 
L 370.220625 240.1555 
L 370.220625 187.440598 
L 366.200625 187.440598 
z
" clip-path="url(#pd09510d85e)" style="fill: #fc8d62"/>
   </g>
   <g id="patch_88">
    <path d="M 374.240625 240.1555 
L 378.260625 240.1555 
L 378.260625 202.04133 
L 374.240625 202.04133 
z
" clip-path="url(#pd09510d85e)" style="fill: #fc8d62"/>
   </g>
   <g id="patch_89">
    <path d="M 382.280625 240.1555 
L 386.300625 240.1555 
L 386.300625 206.096886 
L 382.280625 206.096886 
z
" clip-path="url(#pd09510d85e)" style="fill: #fc8d62"/>
   </g>
   <g id="patch_90">
    <path d="M 390.320625 240.1555 
L 394.340625 240.1555 
L 394.340625 204.522979 
L 390.320625 204.522979 
z
" clip-path="url(#pd09510d85e)" style="fill: #fc8d62"/>
   </g>
   <g id="patch_91">
    <path d="M 398.360625 240.1555 
L 402.380625 240.1555 
L 402.380625 196.258137 
L 398.360625 196.258137 
z
" clip-path="url(#pd09510d85e)" style="fill: #fc8d62"/>
   </g>
   <g id="patch_92">
    <path d="M 406.400625 240.1555 
L 410.420625 240.1555 
L 410.420625 178.264355 
L 406.400625 178.264355 
z
" clip-path="url(#pd09510d85e)" style="fill: #fc8d62"/>
   </g>
   <g id="patch_93">
    <path d="M 414.440625 240.1555 
L 418.460625 240.1555 
L 418.460625 180.043236 
L 414.440625 180.043236 
z
" clip-path="url(#pd09510d85e)" style="fill: #fc8d62"/>
   </g>
   <g id="patch_94">
    <path d="M 422.480625 240.1555 
L 426.500625 240.1555 
L 426.500625 181.818456 
L 422.480625 181.818456 
z
" clip-path="url(#pd09510d85e)" style="fill: #fc8d62"/>
   </g>
   <g id="patch_95">
    <path d="M 430.520625 240.1555 
L 434.540625 240.1555 
L 434.540625 183.128825 
L 430.520625 183.128825 
z
" clip-path="url(#pd09510d85e)" style="fill: #fc8d62"/>
   </g>
   <g id="patch_96">
    <path d="M 438.560625 240.1555 
L 442.580625 240.1555 
L 442.580625 180.789926 
L 438.560625 180.789926 
z
" clip-path="url(#pd09510d85e)" style="fill: #fc8d62"/>
   </g>
   <g id="patch_97">
    <path d="M 446.600625 240.1555 
L 450.620625 240.1555 
L 450.620625 179.439295 
L 446.600625 179.439295 
z
" clip-path="url(#pd09510d85e)" style="fill: #fc8d62"/>
   </g>
   <g id="patch_98">
    <path d="M 454.640625 240.1555 
L 458.660625 240.1555 
L 458.660625 177.082094 
L 454.640625 177.082094 
z
" clip-path="url(#pd09510d85e)" style="fill: #fc8d62"/>
   </g>
   <g id="patch_99">
    <path d="M 462.680625 240.1555 
L 466.700625 240.1555 
L 466.700625 190.237028 
L 462.680625 190.237028 
z
" clip-path="url(#pd09510d85e)" style="fill: #fc8d62"/>
   </g>
   <g id="patch_100">
    <path d="M 470.720625 240.1555 
L 474.740625 240.1555 
L 474.740625 197.575827 
L 470.720625 197.575827 
z
" clip-path="url(#pd09510d85e)" style="fill: #fc8d62"/>
   </g>
   <g id="patch_101">
    <path d="M 478.760625 240.1555 
L 482.780625 240.1555 
L 482.780625 205.020773 
L 478.760625 205.020773 
z
" clip-path="url(#pd09510d85e)" style="fill: #fc8d62"/>
   </g>
   <g id="patch_102">
    <path d="M 486.800625 240.1555 
L 490.820625 240.1555 
L 490.820625 213.494248 
L 486.800625 213.494248 
z
" clip-path="url(#pd09510d85e)" style="fill: #fc8d62"/>
   </g>
   <g id="patch_103">
    <path d="M 494.840625 240.1555 
L 498.860625 240.1555 
L 498.860625 219.431172 
L 494.840625 219.431172 
z
" clip-path="url(#pd09510d85e)" style="fill: #fc8d62"/>
   </g>
   <g id="patch_104">
    <path d="M 502.880625 240.1555 
L 506.900625 240.1555 
L 506.900625 224.101649 
L 502.880625 224.101649 
z
" clip-path="url(#pd09510d85e)" style="fill: #fc8d62"/>
   </g>
   <g id="patch_105">
    <path d="M 510.920625 240.1555 
L 514.940625 240.1555 
L 514.940625 230.346033 
L 510.920625 230.346033 
z
" clip-path="url(#pd09510d85e)" style="fill: #fc8d62"/>
   </g>
   <g id="patch_106">
    <path d="M 518.960625 240.1555 
L 522.980625 240.1555 
L 522.980625 233.523129 
L 518.960625 233.523129 
z
" clip-path="url(#pd09510d85e)" style="fill: #fc8d62"/>
   </g>
   <g id="patch_107">
    <path d="M 527.000625 240.1555 
L 531.020625 240.1555 
L 531.020625 235.829086 
L 527.000625 235.829086 
z
" clip-path="url(#pd09510d85e)" style="fill: #fc8d62"/>
   </g>
   <g id="patch_108">
    <path d="M 535.040625 240.1555 
L 539.060625 240.1555 
L 539.060625 236.824674 
L 535.040625 236.824674 
z
" clip-path="url(#pd09510d85e)" style="fill: #fc8d62"/>
   </g>
   <g id="patch_109">
    <path d="M 543.080625 240.1555 
L 547.100625 240.1555 
L 547.100625 237.820261 
L 543.080625 237.820261 
z
" clip-path="url(#pd09510d85e)" style="fill: #fc8d62"/>
   </g>
   <g id="patch_110">
    <path d="M 551.120625 240.1555 
L 555.140625 240.1555 
L 555.140625 239.134291 
L 551.120625 239.134291 
z
" clip-path="url(#pd09510d85e)" style="fill: #fc8d62"/>
   </g>
   <g id="matplotlib.axis_3">
    <g id="xtick_7">
     <g id="line2d_13">
      <g>
       <use xlink:href="#mc209ffcca5" x="353.349286" y="240.1555" style="stroke: #000000; stroke-width: 0.8"/>
      </g>
     </g>
     <g id="text_18">
      <!-- 0 -->
      <g transform="translate(350.168036 254.753938)scale(0.1 -0.1)">
       <use xlink:href="#DejaVuSans-30"/>
      </g>
     </g>
    </g>
    <g id="xtick_8">
     <g id="line2d_14">
      <g>
       <use xlink:href="#mc209ffcca5" x="392.916216" y="240.1555" style="stroke: #000000; stroke-width: 0.8"/>
      </g>
     </g>
     <g id="text_19">
      <!-- 50 -->
      <g transform="translate(386.553716 254.753938)scale(0.1 -0.1)">
       <use xlink:href="#DejaVuSans-35"/>
       <use xlink:href="#DejaVuSans-30" x="63.623047"/>
      </g>
     </g>
    </g>
    <g id="xtick_9">
     <g id="line2d_15">
      <g>
       <use xlink:href="#mc209ffcca5" x="432.483145" y="240.1555" style="stroke: #000000; stroke-width: 0.8"/>
      </g>
     </g>
     <g id="text_20">
      <!-- 100 -->
      <g transform="translate(422.939395 254.753938)scale(0.1 -0.1)">
       <use xlink:href="#DejaVuSans-31"/>
       <use xlink:href="#DejaVuSans-30" x="63.623047"/>
       <use xlink:href="#DejaVuSans-30" x="127.246094"/>
      </g>
     </g>
    </g>
    <g id="xtick_10">
     <g id="line2d_16">
      <g>
       <use xlink:href="#mc209ffcca5" x="472.050074" y="240.1555" style="stroke: #000000; stroke-width: 0.8"/>
      </g>
     </g>
     <g id="text_21">
      <!-- 150 -->
      <g transform="translate(462.506324 254.753938)scale(0.1 -0.1)">
       <use xlink:href="#DejaVuSans-31"/>
       <use xlink:href="#DejaVuSans-35" x="63.623047"/>
       <use xlink:href="#DejaVuSans-30" x="127.246094"/>
      </g>
     </g>
    </g>
    <g id="xtick_11">
     <g id="line2d_17">
      <g>
       <use xlink:href="#mc209ffcca5" x="511.617003" y="240.1555" style="stroke: #000000; stroke-width: 0.8"/>
      </g>
     </g>
     <g id="text_22">
      <!-- 200 -->
      <g transform="translate(502.073253 254.753938)scale(0.1 -0.1)">
       <use xlink:href="#DejaVuSans-32"/>
       <use xlink:href="#DejaVuSans-30" x="63.623047"/>
       <use xlink:href="#DejaVuSans-30" x="127.246094"/>
      </g>
     </g>
    </g>
    <g id="xtick_12">
     <g id="line2d_18">
      <g>
       <use xlink:href="#mc209ffcca5" x="551.183932" y="240.1555" style="stroke: #000000; stroke-width: 0.8"/>
      </g>
     </g>
     <g id="text_23">
      <!-- 250 -->
      <g transform="translate(541.640182 254.753938)scale(0.1 -0.1)">
       <use xlink:href="#DejaVuSans-32"/>
       <use xlink:href="#DejaVuSans-35" x="63.623047"/>
       <use xlink:href="#DejaVuSans-30" x="127.246094"/>
      </g>
     </g>
    </g>
    <g id="text_24">
     <!-- Pixel value -->
     <g transform="translate(427.833594 268.432062)scale(0.1 -0.1)">
      <use xlink:href="#DejaVuSans-50"/>
      <use xlink:href="#DejaVuSans-69" x="58.052734"/>
      <use xlink:href="#DejaVuSans-78" x="85.835938"/>
      <use xlink:href="#DejaVuSans-65" x="141.890625"/>
      <use xlink:href="#DejaVuSans-6c" x="203.414062"/>
      <use xlink:href="#DejaVuSans-20" x="231.197266"/>
      <use xlink:href="#DejaVuSans-76" x="262.984375"/>
      <use xlink:href="#DejaVuSans-61" x="322.164062"/>
      <use xlink:href="#DejaVuSans-6c" x="383.443359"/>
      <use xlink:href="#DejaVuSans-75" x="411.226562"/>
      <use xlink:href="#DejaVuSans-65" x="474.605469"/>
     </g>
    </g>
   </g>
   <g id="matplotlib.axis_4">
    <g id="ytick_7">
     <g id="line2d_19">
      <g>
       <use xlink:href="#m3dcd075b06" x="344.090625" y="240.1555" style="stroke: #000000; stroke-width: 0.8"/>
      </g>
     </g>
     <g id="text_25">
      <!-- 0 -->
      <g transform="translate(330.728125 243.954719)scale(0.1 -0.1)">
       <use xlink:href="#DejaVuSans-30"/>
      </g>
     </g>
    </g>
    <g id="ytick_8">
     <g id="line2d_20">
      <g>
       <use xlink:href="#m3dcd075b06" x="344.090625" y="203.553013" style="stroke: #000000; stroke-width: 0.8"/>
      </g>
     </g>
     <g id="text_26">
      <!-- 10000 -->
      <g transform="translate(305.278125 207.352232)scale(0.1 -0.1)">
       <use xlink:href="#DejaVuSans-31"/>
       <use xlink:href="#DejaVuSans-30" x="63.623047"/>
       <use xlink:href="#DejaVuSans-30" x="127.246094"/>
       <use xlink:href="#DejaVuSans-30" x="190.869141"/>
       <use xlink:href="#DejaVuSans-30" x="254.492188"/>
      </g>
     </g>
    </g>
    <g id="ytick_9">
     <g id="line2d_21">
      <g>
       <use xlink:href="#m3dcd075b06" x="344.090625" y="166.950526" style="stroke: #000000; stroke-width: 0.8"/>
      </g>
     </g>
     <g id="text_27">
      <!-- 20000 -->
      <g transform="translate(305.278125 170.749745)scale(0.1 -0.1)">
       <use xlink:href="#DejaVuSans-32"/>
       <use xlink:href="#DejaVuSans-30" x="63.623047"/>
       <use xlink:href="#DejaVuSans-30" x="127.246094"/>
       <use xlink:href="#DejaVuSans-30" x="190.869141"/>
       <use xlink:href="#DejaVuSans-30" x="254.492188"/>
      </g>
     </g>
    </g>
    <g id="ytick_10">
     <g id="line2d_22">
      <g>
       <use xlink:href="#m3dcd075b06" x="344.090625" y="130.348039" style="stroke: #000000; stroke-width: 0.8"/>
      </g>
     </g>
     <g id="text_28">
      <!-- 30000 -->
      <g transform="translate(305.278125 134.147258)scale(0.1 -0.1)">
       <defs>
        <path id="DejaVuSans-33" d="M 2597 2516 
Q 3050 2419 3304 2112 
Q 3559 1806 3559 1356 
Q 3559 666 3084 287 
Q 2609 -91 1734 -91 
Q 1441 -91 1130 -33 
Q 819 25 488 141 
L 488 750 
Q 750 597 1062 519 
Q 1375 441 1716 441 
Q 2309 441 2620 675 
Q 2931 909 2931 1356 
Q 2931 1769 2642 2001 
Q 2353 2234 1838 2234 
L 1294 2234 
L 1294 2753 
L 1863 2753 
Q 2328 2753 2575 2939 
Q 2822 3125 2822 3475 
Q 2822 3834 2567 4026 
Q 2313 4219 1838 4219 
Q 1578 4219 1281 4162 
Q 984 4106 628 3988 
L 628 4550 
Q 988 4650 1302 4700 
Q 1616 4750 1894 4750 
Q 2613 4750 3031 4423 
Q 3450 4097 3450 3541 
Q 3450 3153 3228 2886 
Q 3006 2619 2597 2516 
z
" transform="scale(0.015625)"/>
       </defs>
       <use xlink:href="#DejaVuSans-33"/>
       <use xlink:href="#DejaVuSans-30" x="63.623047"/>
       <use xlink:href="#DejaVuSans-30" x="127.246094"/>
       <use xlink:href="#DejaVuSans-30" x="190.869141"/>
       <use xlink:href="#DejaVuSans-30" x="254.492188"/>
      </g>
     </g>
    </g>
    <g id="ytick_11">
     <g id="line2d_23">
      <g>
       <use xlink:href="#m3dcd075b06" x="344.090625" y="93.745552" style="stroke: #000000; stroke-width: 0.8"/>
      </g>
     </g>
     <g id="text_29">
      <!-- 40000 -->
      <g transform="translate(305.278125 97.544771)scale(0.1 -0.1)">
       <defs>
        <path id="DejaVuSans-34" d="M 2419 4116 
L 825 1625 
L 2419 1625 
L 2419 4116 
z
M 2253 4666 
L 3047 4666 
L 3047 1625 
L 3713 1625 
L 3713 1100 
L 3047 1100 
L 3047 0 
L 2419 0 
L 2419 1100 
L 313 1100 
L 313 1709 
L 2253 4666 
z
" transform="scale(0.015625)"/>
       </defs>
       <use xlink:href="#DejaVuSans-34"/>
       <use xlink:href="#DejaVuSans-30" x="63.623047"/>
       <use xlink:href="#DejaVuSans-30" x="127.246094"/>
       <use xlink:href="#DejaVuSans-30" x="190.869141"/>
       <use xlink:href="#DejaVuSans-30" x="254.492188"/>
      </g>
     </g>
    </g>
    <g id="ytick_12">
     <g id="line2d_24">
      <g>
       <use xlink:href="#m3dcd075b06" x="344.090625" y="57.143065" style="stroke: #000000; stroke-width: 0.8"/>
      </g>
     </g>
     <g id="text_30">
      <!-- 50000 -->
      <g transform="translate(305.278125 60.942284)scale(0.1 -0.1)">
       <use xlink:href="#DejaVuSans-35"/>
       <use xlink:href="#DejaVuSans-30" x="63.623047"/>
       <use xlink:href="#DejaVuSans-30" x="127.246094"/>
       <use xlink:href="#DejaVuSans-30" x="190.869141"/>
       <use xlink:href="#DejaVuSans-30" x="254.492188"/>
      </g>
     </g>
    </g>
    <g id="text_31">
     <!-- Number of pixels -->
     <g transform="translate(299.198438 180.475812)rotate(-90)scale(0.1 -0.1)">
      <use xlink:href="#DejaVuSans-4e"/>
      <use xlink:href="#DejaVuSans-75" x="74.804688"/>
      <use xlink:href="#DejaVuSans-6d" x="138.183594"/>
      <use xlink:href="#DejaVuSans-62" x="235.595703"/>
      <use xlink:href="#DejaVuSans-65" x="299.072266"/>
      <use xlink:href="#DejaVuSans-72" x="360.595703"/>
      <use xlink:href="#DejaVuSans-20" x="401.708984"/>
      <use xlink:href="#DejaVuSans-6f" x="433.496094"/>
      <use xlink:href="#DejaVuSans-66" x="494.677734"/>
      <use xlink:href="#DejaVuSans-20" x="529.882812"/>
      <use xlink:href="#DejaVuSans-70" x="561.669922"/>
      <use xlink:href="#DejaVuSans-69" x="625.146484"/>
      <use xlink:href="#DejaVuSans-78" x="652.929688"/>
      <use xlink:href="#DejaVuSans-65" x="708.984375"/>
      <use xlink:href="#DejaVuSans-6c" x="770.507812"/>
      <use xlink:href="#DejaVuSans-73" x="798.291016"/>
     </g>
    </g>
   </g>
   <g id="patch_111">
    <path d="M 344.090625 240.1555 
L 344.090625 35.7555 
" style="fill: none; stroke: #000000; stroke-width: 0.8; stroke-linejoin: miter; stroke-linecap: square"/>
   </g>
   <g id="patch_112">
    <path d="M 565.190625 240.1555 
L 565.190625 35.7555 
" style="fill: none; stroke: #000000; stroke-width: 0.8; stroke-linejoin: miter; stroke-linecap: square"/>
   </g>
   <g id="patch_113">
    <path d="M 344.090625 240.1555 
L 565.190625 240.1555 
" style="fill: none; stroke: #000000; stroke-width: 0.8; stroke-linejoin: miter; stroke-linecap: square"/>
   </g>
   <g id="patch_114">
    <path d="M 344.090625 35.7555 
L 565.190625 35.7555 
" style="fill: none; stroke: #000000; stroke-width: 0.8; stroke-linejoin: miter; stroke-linecap: square"/>
   </g>
   <g id="text_32">
    <!-- Test dataset -->
    <g transform="translate(418.234688 16.318125)scale(0.12 -0.12)">
     <use xlink:href="#DejaVuSans-54"/>
     <use xlink:href="#DejaVuSans-65" x="44.083984"/>
     <use xlink:href="#DejaVuSans-73" x="105.607422"/>
     <use xlink:href="#DejaVuSans-74" x="157.707031"/>
     <use xlink:href="#DejaVuSans-20" x="196.916016"/>
     <use xlink:href="#DejaVuSans-64" x="228.703125"/>
     <use xlink:href="#DejaVuSans-61" x="292.179688"/>
     <use xlink:href="#DejaVuSans-74" x="353.458984"/>
     <use xlink:href="#DejaVuSans-61" x="392.667969"/>
     <use xlink:href="#DejaVuSans-73" x="453.947266"/>
     <use xlink:href="#DejaVuSans-65" x="506.046875"/>
     <use xlink:href="#DejaVuSans-74" x="567.570312"/>
    </g>
    <!-- ArUco original -->
    <g transform="translate(412.374375 29.7555)scale(0.12 -0.12)">
     <defs>
      <path id="DejaVuSans-55" d="M 556 4666 
L 1191 4666 
L 1191 1831 
Q 1191 1081 1462 751 
Q 1734 422 2344 422 
Q 2950 422 3222 751 
Q 3494 1081 3494 1831 
L 3494 4666 
L 4128 4666 
L 4128 1753 
Q 4128 841 3676 375 
Q 3225 -91 2344 -91 
Q 1459 -91 1007 375 
Q 556 841 556 1753 
L 556 4666 
z
" transform="scale(0.015625)"/>
      <path id="DejaVuSans-63" d="M 3122 3366 
L 3122 2828 
Q 2878 2963 2633 3030 
Q 2388 3097 2138 3097 
Q 1578 3097 1268 2742 
Q 959 2388 959 1747 
Q 959 1106 1268 751 
Q 1578 397 2138 397 
Q 2388 397 2633 464 
Q 2878 531 3122 666 
L 3122 134 
Q 2881 22 2623 -34 
Q 2366 -91 2075 -91 
Q 1284 -91 818 406 
Q 353 903 353 1747 
Q 353 2603 823 3093 
Q 1294 3584 2113 3584 
Q 2378 3584 2631 3529 
Q 2884 3475 3122 3366 
z
" transform="scale(0.015625)"/>
      <path id="DejaVuSans-6e" d="M 3513 2113 
L 3513 0 
L 2938 0 
L 2938 2094 
Q 2938 2591 2744 2837 
Q 2550 3084 2163 3084 
Q 1697 3084 1428 2787 
Q 1159 2491 1159 1978 
L 1159 0 
L 581 0 
L 581 3500 
L 1159 3500 
L 1159 2956 
Q 1366 3272 1645 3428 
Q 1925 3584 2291 3584 
Q 2894 3584 3203 3211 
Q 3513 2838 3513 2113 
z
" transform="scale(0.015625)"/>
     </defs>
     <use xlink:href="#DejaVuSans-41"/>
     <use xlink:href="#DejaVuSans-72" x="68.408203"/>
     <use xlink:href="#DejaVuSans-55" x="109.521484"/>
     <use xlink:href="#DejaVuSans-63" x="182.714844"/>
     <use xlink:href="#DejaVuSans-6f" x="237.695312"/>
     <use xlink:href="#DejaVuSans-20" x="298.876953"/>
     <use xlink:href="#DejaVuSans-6f" x="330.664062"/>
     <use xlink:href="#DejaVuSans-72" x="391.845703"/>
     <use xlink:href="#DejaVuSans-69" x="432.958984"/>
     <use xlink:href="#DejaVuSans-67" x="460.742188"/>
     <use xlink:href="#DejaVuSans-69" x="524.21875"/>
     <use xlink:href="#DejaVuSans-6e" x="552.001953"/>
     <use xlink:href="#DejaVuSans-61" x="615.380859"/>
     <use xlink:href="#DejaVuSans-6c" x="676.660156"/>
    </g>
   </g>
   <g id="legend_2">
    <g id="patch_115">
     <path d="M 477.395312 73.11175 
L 558.190625 73.11175 
Q 560.190625 73.11175 560.190625 71.11175 
L 560.190625 42.7555 
Q 560.190625 40.7555 558.190625 40.7555 
L 477.395312 40.7555 
Q 475.395312 40.7555 475.395312 42.7555 
L 475.395312 71.11175 
Q 475.395312 73.11175 477.395312 73.11175 
z
" style="fill: #ffffff; opacity: 0.8; stroke: #cccccc; stroke-linejoin: miter"/>
    </g>
    <g id="patch_116">
     <path d="M 479.395312 52.353938 
L 499.395312 52.353938 
L 499.395312 45.353938 
L 479.395312 45.353938 
z
" style="fill: #66c2a5"/>
    </g>
    <g id="text_33">
     <!-- HR image -->
     <g transform="translate(507.395312 52.353938)scale(0.1 -0.1)">
      <use xlink:href="#DejaVuSans-48"/>
      <use xlink:href="#DejaVuSans-52" x="75.195312"/>
      <use xlink:href="#DejaVuSans-20" x="144.677734"/>
      <use xlink:href="#DejaVuSans-69" x="176.464844"/>
      <use xlink:href="#DejaVuSans-6d" x="204.248047"/>
      <use xlink:href="#DejaVuSans-61" x="301.660156"/>
      <use xlink:href="#DejaVuSans-67" x="362.939453"/>
      <use xlink:href="#DejaVuSans-65" x="426.416016"/>
     </g>
    </g>
    <g id="patch_117">
     <path d="M 479.395312 67.032062 
L 499.395312 67.032062 
L 499.395312 60.032062 
L 479.395312 60.032062 
z
" style="fill: #fc8d62"/>
    </g>
    <g id="text_34">
     <!-- SR image -->
     <g transform="translate(507.395312 67.032062)scale(0.1 -0.1)">
      <use xlink:href="#DejaVuSans-53"/>
      <use xlink:href="#DejaVuSans-52" x="63.476562"/>
      <use xlink:href="#DejaVuSans-20" x="132.958984"/>
      <use xlink:href="#DejaVuSans-69" x="164.746094"/>
      <use xlink:href="#DejaVuSans-6d" x="192.529297"/>
      <use xlink:href="#DejaVuSans-61" x="289.941406"/>
      <use xlink:href="#DejaVuSans-67" x="351.220703"/>
      <use xlink:href="#DejaVuSans-65" x="414.697266"/>
     </g>
    </g>
   </g>
  </g>
  <g id="axes_3">
   <g id="patch_118">
    <path d="M 628.490625 240.1555 
L 849.590625 240.1555 
L 849.590625 35.7555 
L 628.490625 35.7555 
z
" style="fill: #ffffff"/>
   </g>
   <g id="patch_119">
    <path d="M 638.540625 240.1555 
L 642.560625 240.1555 
L 642.560625 112.890945 
L 638.540625 112.890945 
z
" clip-path="url(#pec41d1fc21)" style="fill: #66c2a5"/>
   </g>
   <g id="patch_120">
    <path d="M 646.580625 240.1555 
L 650.600625 240.1555 
L 650.600625 183.912871 
L 646.580625 183.912871 
z
" clip-path="url(#pec41d1fc21)" style="fill: #66c2a5"/>
   </g>
   <g id="patch_121">
    <path d="M 654.620625 240.1555 
L 658.640625 240.1555 
L 658.640625 198.295343 
L 654.620625 198.295343 
z
" clip-path="url(#pec41d1fc21)" style="fill: #66c2a5"/>
   </g>
   <g id="patch_122">
    <path d="M 662.660625 240.1555 
L 666.680625 240.1555 
L 666.680625 205.254292 
L 662.660625 205.254292 
z
" clip-path="url(#pec41d1fc21)" style="fill: #66c2a5"/>
   </g>
   <g id="patch_123">
    <path d="M 670.700625 240.1555 
L 674.720625 240.1555 
L 674.720625 207.233576 
L 670.700625 207.233576 
z
" clip-path="url(#pec41d1fc21)" style="fill: #66c2a5"/>
   </g>
   <g id="patch_124">
    <path d="M 678.740625 240.1555 
L 682.760625 240.1555 
L 682.760625 206.406051 
L 678.740625 206.406051 
z
" clip-path="url(#pec41d1fc21)" style="fill: #66c2a5"/>
   </g>
   <g id="patch_125">
    <path d="M 686.780625 240.1555 
L 690.800625 240.1555 
L 690.800625 198.213075 
L 686.780625 198.213075 
z
" clip-path="url(#pec41d1fc21)" style="fill: #66c2a5"/>
   </g>
   <g id="patch_126">
    <path d="M 694.820625 240.1555 
L 698.840625 240.1555 
L 698.840625 194.264186 
L 694.820625 194.264186 
z
" clip-path="url(#pec41d1fc21)" style="fill: #66c2a5"/>
   </g>
   <g id="patch_127">
    <path d="M 702.860625 240.1555 
L 706.880625 240.1555 
L 706.880625 185.582438 
L 702.860625 185.582438 
z
" clip-path="url(#pec41d1fc21)" style="fill: #66c2a5"/>
   </g>
   <g id="patch_128">
    <path d="M 710.900625 240.1555 
L 714.920625 240.1555 
L 714.920625 181.856158 
L 710.900625 181.856158 
z
" clip-path="url(#pec41d1fc21)" style="fill: #66c2a5"/>
   </g>
   <g id="patch_129">
    <path d="M 718.940625 240.1555 
L 722.960625 240.1555 
L 722.960625 168.765785 
L 718.940625 168.765785 
z
" clip-path="url(#pec41d1fc21)" style="fill: #66c2a5"/>
   </g>
   <g id="patch_130">
    <path d="M 726.980625 240.1555 
L 731.000625 240.1555 
L 731.000625 158.961314 
L 726.980625 158.961314 
z
" clip-path="url(#pec41d1fc21)" style="fill: #66c2a5"/>
   </g>
   <g id="patch_131">
    <path d="M 735.020625 240.1555 
L 739.040625 240.1555 
L 739.040625 142.594718 
L 735.020625 142.594718 
z
" clip-path="url(#pec41d1fc21)" style="fill: #66c2a5"/>
   </g>
   <g id="patch_132">
    <path d="M 743.060625 240.1555 
L 747.080625 240.1555 
L 747.080625 152.205617 
L 743.060625 152.205617 
z
" clip-path="url(#pec41d1fc21)" style="fill: #66c2a5"/>
   </g>
   <g id="patch_133">
    <path d="M 751.100625 240.1555 
L 755.120625 240.1555 
L 755.120625 156.106112 
L 751.100625 156.106112 
z
" clip-path="url(#pec41d1fc21)" style="fill: #66c2a5"/>
   </g>
   <g id="patch_134">
    <path d="M 759.140625 240.1555 
L 763.160625 240.1555 
L 763.160625 162.910203 
L 759.140625 162.910203 
z
" clip-path="url(#pec41d1fc21)" style="fill: #66c2a5"/>
   </g>
   <g id="patch_135">
    <path d="M 767.180625 240.1555 
L 771.200625 240.1555 
L 771.200625 172.975998 
L 767.180625 172.975998 
z
" clip-path="url(#pec41d1fc21)" style="fill: #66c2a5"/>
   </g>
   <g id="patch_136">
    <path d="M 775.220625 240.1555 
L 779.240625 240.1555 
L 779.240625 184.372607 
L 775.220625 184.372607 
z
" clip-path="url(#pec41d1fc21)" style="fill: #66c2a5"/>
   </g>
   <g id="patch_137">
    <path d="M 783.260625 240.1555 
L 787.280625 240.1555 
L 787.280625 187.203612 
L 783.260625 187.203612 
z
" clip-path="url(#pec41d1fc21)" style="fill: #66c2a5"/>
   </g>
   <g id="patch_138">
    <path d="M 791.300625 240.1555 
L 795.320625 240.1555 
L 795.320625 204.015425 
L 791.300625 204.015425 
z
" clip-path="url(#pec41d1fc21)" style="fill: #66c2a5"/>
   </g>
   <g id="patch_139">
    <path d="M 799.340625 240.1555 
L 803.360625 240.1555 
L 803.360625 212.750405 
L 799.340625 212.750405 
z
" clip-path="url(#pec41d1fc21)" style="fill: #66c2a5"/>
   </g>
   <g id="patch_140">
    <path d="M 807.380625 240.1555 
L 811.400625 240.1555 
L 811.400625 220.614308 
L 807.380625 220.614308 
z
" clip-path="url(#pec41d1fc21)" style="fill: #66c2a5"/>
   </g>
   <g id="patch_141">
    <path d="M 815.420625 240.1555 
L 819.440625 240.1555 
L 819.440625 225.647205 
L 815.420625 225.647205 
z
" clip-path="url(#pec41d1fc21)" style="fill: #66c2a5"/>
   </g>
   <g id="patch_142">
    <path d="M 823.460625 240.1555 
L 827.480625 240.1555 
L 827.480625 229.813864 
L 823.460625 229.813864 
z
" clip-path="url(#pec41d1fc21)" style="fill: #66c2a5"/>
   </g>
   <g id="patch_143">
    <path d="M 831.500625 240.1555 
L 835.520625 240.1555 
L 835.520625 229.91065 
L 831.500625 229.91065 
z
" clip-path="url(#pec41d1fc21)" style="fill: #66c2a5"/>
   </g>
   <g id="patch_144">
    <path d="M 642.560625 240.1555 
L 646.580625 240.1555 
L 646.580625 45.488833 
L 642.560625 45.488833 
z
" clip-path="url(#pec41d1fc21)" style="fill: #fc8d62"/>
   </g>
   <g id="patch_145">
    <path d="M 650.600625 240.1555 
L 654.620625 240.1555 
L 654.620625 177.268478 
L 650.600625 177.268478 
z
" clip-path="url(#pec41d1fc21)" style="fill: #fc8d62"/>
   </g>
   <g id="patch_146">
    <path d="M 658.640625 240.1555 
L 662.660625 240.1555 
L 662.660625 191.529968 
L 658.640625 191.529968 
z
" clip-path="url(#pec41d1fc21)" style="fill: #fc8d62"/>
   </g>
   <g id="patch_147">
    <path d="M 666.680625 240.1555 
L 670.700625 240.1555 
L 670.700625 193.151141 
L 666.680625 193.151141 
z
" clip-path="url(#pec41d1fc21)" style="fill: #fc8d62"/>
   </g>
   <g id="patch_148">
    <path d="M 674.720625 240.1555 
L 678.740625 240.1555 
L 678.740625 188.456997 
L 674.720625 188.456997 
z
" clip-path="url(#pec41d1fc21)" style="fill: #fc8d62"/>
   </g>
   <g id="patch_149">
    <path d="M 682.760625 240.1555 
L 686.780625 240.1555 
L 686.780625 176.10704 
L 682.760625 176.10704 
z
" clip-path="url(#pec41d1fc21)" style="fill: #fc8d62"/>
   </g>
   <g id="patch_150">
    <path d="M 690.800625 240.1555 
L 694.820625 240.1555 
L 694.820625 149.640775 
L 690.800625 149.640775 
z
" clip-path="url(#pec41d1fc21)" style="fill: #fc8d62"/>
   </g>
   <g id="patch_151">
    <path d="M 698.840625 240.1555 
L 702.860625 240.1555 
L 702.860625 139.802428 
L 698.840625 139.802428 
z
" clip-path="url(#pec41d1fc21)" style="fill: #fc8d62"/>
   </g>
   <g id="patch_152">
    <path d="M 706.880625 240.1555 
L 710.900625 240.1555 
L 710.900625 128.957502 
L 706.880625 128.957502 
z
" clip-path="url(#pec41d1fc21)" style="fill: #fc8d62"/>
   </g>
   <g id="patch_153">
    <path d="M 714.920625 240.1555 
L 718.940625 240.1555 
L 718.940625 126.75077 
L 714.920625 126.75077 
z
" clip-path="url(#pec41d1fc21)" style="fill: #fc8d62"/>
   </g>
   <g id="patch_154">
    <path d="M 722.960625 240.1555 
L 726.980625 240.1555 
L 726.980625 132.824122 
L 722.960625 132.824122 
z
" clip-path="url(#pec41d1fc21)" style="fill: #fc8d62"/>
   </g>
   <g id="patch_155">
    <path d="M 731.000625 240.1555 
L 735.020625 240.1555 
L 735.020625 144.046516 
L 731.000625 144.046516 
z
" clip-path="url(#pec41d1fc21)" style="fill: #fc8d62"/>
   </g>
   <g id="patch_156">
    <path d="M 739.040625 240.1555 
L 743.060625 240.1555 
L 743.060625 154.62044 
L 739.040625 154.62044 
z
" clip-path="url(#pec41d1fc21)" style="fill: #fc8d62"/>
   </g>
   <g id="patch_157">
    <path d="M 747.080625 240.1555 
L 751.100625 240.1555 
L 751.100625 175.356945 
L 747.080625 175.356945 
z
" clip-path="url(#pec41d1fc21)" style="fill: #fc8d62"/>
   </g>
   <g id="patch_158">
    <path d="M 755.120625 240.1555 
L 759.140625 240.1555 
L 759.140625 189.28936 
L 755.120625 189.28936 
z
" clip-path="url(#pec41d1fc21)" style="fill: #fc8d62"/>
   </g>
   <g id="patch_159">
    <path d="M 763.160625 240.1555 
L 767.180625 240.1555 
L 767.180625 201.121509 
L 763.160625 201.121509 
z
" clip-path="url(#pec41d1fc21)" style="fill: #fc8d62"/>
   </g>
   <g id="patch_160">
    <path d="M 771.200625 240.1555 
L 775.220625 240.1555 
L 775.220625 211.92772 
L 771.200625 211.92772 
z
" clip-path="url(#pec41d1fc21)" style="fill: #fc8d62"/>
   </g>
   <g id="patch_161">
    <path d="M 779.240625 240.1555 
L 783.260625 240.1555 
L 783.260625 220.23684 
L 779.240625 220.23684 
z
" clip-path="url(#pec41d1fc21)" style="fill: #fc8d62"/>
   </g>
   <g id="patch_162">
    <path d="M 787.280625 240.1555 
L 791.300625 240.1555 
L 791.300625 224.756769 
L 787.280625 224.756769 
z
" clip-path="url(#pec41d1fc21)" style="fill: #fc8d62"/>
   </g>
   <g id="patch_163">
    <path d="M 795.320625 240.1555 
L 799.340625 240.1555 
L 799.340625 230.786568 
L 795.320625 230.786568 
z
" clip-path="url(#pec41d1fc21)" style="fill: #fc8d62"/>
   </g>
   <g id="patch_164">
    <path d="M 803.360625 240.1555 
L 807.380625 240.1555 
L 807.380625 233.917611 
L 803.360625 233.917611 
z
" clip-path="url(#pec41d1fc21)" style="fill: #fc8d62"/>
   </g>
   <g id="patch_165">
    <path d="M 811.400625 240.1555 
L 815.420625 240.1555 
L 815.420625 235.969484 
L 811.400625 235.969484 
z
" clip-path="url(#pec41d1fc21)" style="fill: #fc8d62"/>
   </g>
   <g id="patch_166">
    <path d="M 819.440625 240.1555 
L 823.460625 240.1555 
L 823.460625 237.566461 
L 819.440625 237.566461 
z
" clip-path="url(#pec41d1fc21)" style="fill: #fc8d62"/>
   </g>
   <g id="patch_167">
    <path d="M 827.480625 240.1555 
L 831.500625 240.1555 
L 831.500625 238.374629 
L 827.480625 238.374629 
z
" clip-path="url(#pec41d1fc21)" style="fill: #fc8d62"/>
   </g>
   <g id="patch_168">
    <path d="M 835.520625 240.1555 
L 839.540625 240.1555 
L 839.540625 239.357011 
L 835.520625 239.357011 
z
" clip-path="url(#pec41d1fc21)" style="fill: #fc8d62"/>
   </g>
   <g id="matplotlib.axis_5">
    <g id="xtick_13">
     <g id="line2d_25">
      <g>
       <use xlink:href="#mc209ffcca5" x="637.749286" y="240.1555" style="stroke: #000000; stroke-width: 0.8"/>
      </g>
     </g>
     <g id="text_35">
      <!-- 0 -->
      <g transform="translate(634.568036 254.753938)scale(0.1 -0.1)">
       <use xlink:href="#DejaVuSans-30"/>
      </g>
     </g>
    </g>
    <g id="xtick_14">
     <g id="line2d_26">
      <g>
       <use xlink:href="#mc209ffcca5" x="677.316216" y="240.1555" style="stroke: #000000; stroke-width: 0.8"/>
      </g>
     </g>
     <g id="text_36">
      <!-- 50 -->
      <g transform="translate(670.953716 254.753938)scale(0.1 -0.1)">
       <use xlink:href="#DejaVuSans-35"/>
       <use xlink:href="#DejaVuSans-30" x="63.623047"/>
      </g>
     </g>
    </g>
    <g id="xtick_15">
     <g id="line2d_27">
      <g>
       <use xlink:href="#mc209ffcca5" x="716.883145" y="240.1555" style="stroke: #000000; stroke-width: 0.8"/>
      </g>
     </g>
     <g id="text_37">
      <!-- 100 -->
      <g transform="translate(707.339395 254.753938)scale(0.1 -0.1)">
       <use xlink:href="#DejaVuSans-31"/>
       <use xlink:href="#DejaVuSans-30" x="63.623047"/>
       <use xlink:href="#DejaVuSans-30" x="127.246094"/>
      </g>
     </g>
    </g>
    <g id="xtick_16">
     <g id="line2d_28">
      <g>
       <use xlink:href="#mc209ffcca5" x="756.450074" y="240.1555" style="stroke: #000000; stroke-width: 0.8"/>
      </g>
     </g>
     <g id="text_38">
      <!-- 150 -->
      <g transform="translate(746.906324 254.753938)scale(0.1 -0.1)">
       <use xlink:href="#DejaVuSans-31"/>
       <use xlink:href="#DejaVuSans-35" x="63.623047"/>
       <use xlink:href="#DejaVuSans-30" x="127.246094"/>
      </g>
     </g>
    </g>
    <g id="xtick_17">
     <g id="line2d_29">
      <g>
       <use xlink:href="#mc209ffcca5" x="796.017003" y="240.1555" style="stroke: #000000; stroke-width: 0.8"/>
      </g>
     </g>
     <g id="text_39">
      <!-- 200 -->
      <g transform="translate(786.473253 254.753938)scale(0.1 -0.1)">
       <use xlink:href="#DejaVuSans-32"/>
       <use xlink:href="#DejaVuSans-30" x="63.623047"/>
       <use xlink:href="#DejaVuSans-30" x="127.246094"/>
      </g>
     </g>
    </g>
    <g id="xtick_18">
     <g id="line2d_30">
      <g>
       <use xlink:href="#mc209ffcca5" x="835.583932" y="240.1555" style="stroke: #000000; stroke-width: 0.8"/>
      </g>
     </g>
     <g id="text_40">
      <!-- 250 -->
      <g transform="translate(826.040182 254.753938)scale(0.1 -0.1)">
       <use xlink:href="#DejaVuSans-32"/>
       <use xlink:href="#DejaVuSans-35" x="63.623047"/>
       <use xlink:href="#DejaVuSans-30" x="127.246094"/>
      </g>
     </g>
    </g>
    <g id="text_41">
     <!-- Pixel value -->
     <g transform="translate(712.233594 268.432062)scale(0.1 -0.1)">
      <use xlink:href="#DejaVuSans-50"/>
      <use xlink:href="#DejaVuSans-69" x="58.052734"/>
      <use xlink:href="#DejaVuSans-78" x="85.835938"/>
      <use xlink:href="#DejaVuSans-65" x="141.890625"/>
      <use xlink:href="#DejaVuSans-6c" x="203.414062"/>
      <use xlink:href="#DejaVuSans-20" x="231.197266"/>
      <use xlink:href="#DejaVuSans-76" x="262.984375"/>
      <use xlink:href="#DejaVuSans-61" x="322.164062"/>
      <use xlink:href="#DejaVuSans-6c" x="383.443359"/>
      <use xlink:href="#DejaVuSans-75" x="411.226562"/>
      <use xlink:href="#DejaVuSans-65" x="474.605469"/>
     </g>
    </g>
   </g>
   <g id="matplotlib.axis_6">
    <g id="ytick_13">
     <g id="line2d_31">
      <g>
       <use xlink:href="#m3dcd075b06" x="628.490625" y="240.1555" style="stroke: #000000; stroke-width: 0.8"/>
      </g>
     </g>
     <g id="text_42">
      <!-- 0 -->
      <g transform="translate(615.128125 243.954719)scale(0.1 -0.1)">
       <use xlink:href="#DejaVuSans-30"/>
      </g>
     </g>
    </g>
    <g id="ytick_14">
     <g id="line2d_32">
      <g>
       <use xlink:href="#m3dcd075b06" x="628.490625" y="215.958878" style="stroke: #000000; stroke-width: 0.8"/>
      </g>
     </g>
     <g id="text_43">
      <!-- 5000 -->
      <g transform="translate(596.040625 219.758096)scale(0.1 -0.1)">
       <use xlink:href="#DejaVuSans-35"/>
       <use xlink:href="#DejaVuSans-30" x="63.623047"/>
       <use xlink:href="#DejaVuSans-30" x="127.246094"/>
       <use xlink:href="#DejaVuSans-30" x="190.869141"/>
      </g>
     </g>
    </g>
    <g id="ytick_15">
     <g id="line2d_33">
      <g>
       <use xlink:href="#m3dcd075b06" x="628.490625" y="191.762255" style="stroke: #000000; stroke-width: 0.8"/>
      </g>
     </g>
     <g id="text_44">
      <!-- 10000 -->
      <g transform="translate(589.678125 195.561474)scale(0.1 -0.1)">
       <use xlink:href="#DejaVuSans-31"/>
       <use xlink:href="#DejaVuSans-30" x="63.623047"/>
       <use xlink:href="#DejaVuSans-30" x="127.246094"/>
       <use xlink:href="#DejaVuSans-30" x="190.869141"/>
       <use xlink:href="#DejaVuSans-30" x="254.492188"/>
      </g>
     </g>
    </g>
    <g id="ytick_16">
     <g id="line2d_34">
      <g>
       <use xlink:href="#m3dcd075b06" x="628.490625" y="167.565633" style="stroke: #000000; stroke-width: 0.8"/>
      </g>
     </g>
     <g id="text_45">
      <!-- 15000 -->
      <g transform="translate(589.678125 171.364851)scale(0.1 -0.1)">
       <use xlink:href="#DejaVuSans-31"/>
       <use xlink:href="#DejaVuSans-35" x="63.623047"/>
       <use xlink:href="#DejaVuSans-30" x="127.246094"/>
       <use xlink:href="#DejaVuSans-30" x="190.869141"/>
       <use xlink:href="#DejaVuSans-30" x="254.492188"/>
      </g>
     </g>
    </g>
    <g id="ytick_17">
     <g id="line2d_35">
      <g>
       <use xlink:href="#m3dcd075b06" x="628.490625" y="143.36901" style="stroke: #000000; stroke-width: 0.8"/>
      </g>
     </g>
     <g id="text_46">
      <!-- 20000 -->
      <g transform="translate(589.678125 147.168229)scale(0.1 -0.1)">
       <use xlink:href="#DejaVuSans-32"/>
       <use xlink:href="#DejaVuSans-30" x="63.623047"/>
       <use xlink:href="#DejaVuSans-30" x="127.246094"/>
       <use xlink:href="#DejaVuSans-30" x="190.869141"/>
       <use xlink:href="#DejaVuSans-30" x="254.492188"/>
      </g>
     </g>
    </g>
    <g id="ytick_18">
     <g id="line2d_36">
      <g>
       <use xlink:href="#m3dcd075b06" x="628.490625" y="119.172388" style="stroke: #000000; stroke-width: 0.8"/>
      </g>
     </g>
     <g id="text_47">
      <!-- 25000 -->
      <g transform="translate(589.678125 122.971607)scale(0.1 -0.1)">
       <use xlink:href="#DejaVuSans-32"/>
       <use xlink:href="#DejaVuSans-35" x="63.623047"/>
       <use xlink:href="#DejaVuSans-30" x="127.246094"/>
       <use xlink:href="#DejaVuSans-30" x="190.869141"/>
       <use xlink:href="#DejaVuSans-30" x="254.492188"/>
      </g>
     </g>
    </g>
    <g id="ytick_19">
     <g id="line2d_37">
      <g>
       <use xlink:href="#m3dcd075b06" x="628.490625" y="94.975765" style="stroke: #000000; stroke-width: 0.8"/>
      </g>
     </g>
     <g id="text_48">
      <!-- 30000 -->
      <g transform="translate(589.678125 98.774984)scale(0.1 -0.1)">
       <use xlink:href="#DejaVuSans-33"/>
       <use xlink:href="#DejaVuSans-30" x="63.623047"/>
       <use xlink:href="#DejaVuSans-30" x="127.246094"/>
       <use xlink:href="#DejaVuSans-30" x="190.869141"/>
       <use xlink:href="#DejaVuSans-30" x="254.492188"/>
      </g>
     </g>
    </g>
    <g id="ytick_20">
     <g id="line2d_38">
      <g>
       <use xlink:href="#m3dcd075b06" x="628.490625" y="70.779143" style="stroke: #000000; stroke-width: 0.8"/>
      </g>
     </g>
     <g id="text_49">
      <!-- 35000 -->
      <g transform="translate(589.678125 74.578362)scale(0.1 -0.1)">
       <use xlink:href="#DejaVuSans-33"/>
       <use xlink:href="#DejaVuSans-35" x="63.623047"/>
       <use xlink:href="#DejaVuSans-30" x="127.246094"/>
       <use xlink:href="#DejaVuSans-30" x="190.869141"/>
       <use xlink:href="#DejaVuSans-30" x="254.492188"/>
      </g>
     </g>
    </g>
    <g id="ytick_21">
     <g id="line2d_39">
      <g>
       <use xlink:href="#m3dcd075b06" x="628.490625" y="46.582521" style="stroke: #000000; stroke-width: 0.8"/>
      </g>
     </g>
     <g id="text_50">
      <!-- 40000 -->
      <g transform="translate(589.678125 50.381739)scale(0.1 -0.1)">
       <use xlink:href="#DejaVuSans-34"/>
       <use xlink:href="#DejaVuSans-30" x="63.623047"/>
       <use xlink:href="#DejaVuSans-30" x="127.246094"/>
       <use xlink:href="#DejaVuSans-30" x="190.869141"/>
       <use xlink:href="#DejaVuSans-30" x="254.492188"/>
      </g>
     </g>
    </g>
    <g id="text_51">
     <!-- Number of pixels -->
     <g transform="translate(583.598437 180.475812)rotate(-90)scale(0.1 -0.1)">
      <use xlink:href="#DejaVuSans-4e"/>
      <use xlink:href="#DejaVuSans-75" x="74.804688"/>
      <use xlink:href="#DejaVuSans-6d" x="138.183594"/>
      <use xlink:href="#DejaVuSans-62" x="235.595703"/>
      <use xlink:href="#DejaVuSans-65" x="299.072266"/>
      <use xlink:href="#DejaVuSans-72" x="360.595703"/>
      <use xlink:href="#DejaVuSans-20" x="401.708984"/>
      <use xlink:href="#DejaVuSans-6f" x="433.496094"/>
      <use xlink:href="#DejaVuSans-66" x="494.677734"/>
      <use xlink:href="#DejaVuSans-20" x="529.882812"/>
      <use xlink:href="#DejaVuSans-70" x="561.669922"/>
      <use xlink:href="#DejaVuSans-69" x="625.146484"/>
      <use xlink:href="#DejaVuSans-78" x="652.929688"/>
      <use xlink:href="#DejaVuSans-65" x="708.984375"/>
      <use xlink:href="#DejaVuSans-6c" x="770.507812"/>
      <use xlink:href="#DejaVuSans-73" x="798.291016"/>
     </g>
    </g>
   </g>
   <g id="patch_169">
    <path d="M 628.490625 240.1555 
L 628.490625 35.7555 
" style="fill: none; stroke: #000000; stroke-width: 0.8; stroke-linejoin: miter; stroke-linecap: square"/>
   </g>
   <g id="patch_170">
    <path d="M 849.590625 240.1555 
L 849.590625 35.7555 
" style="fill: none; stroke: #000000; stroke-width: 0.8; stroke-linejoin: miter; stroke-linecap: square"/>
   </g>
   <g id="patch_171">
    <path d="M 628.490625 240.1555 
L 849.590625 240.1555 
" style="fill: none; stroke: #000000; stroke-width: 0.8; stroke-linejoin: miter; stroke-linecap: square"/>
   </g>
   <g id="patch_172">
    <path d="M 628.490625 35.7555 
L 849.590625 35.7555 
" style="fill: none; stroke: #000000; stroke-width: 0.8; stroke-linejoin: miter; stroke-linecap: square"/>
   </g>
   <g id="text_52">
    <!-- Test dataset -->
    <g transform="translate(702.634687 16.318125)scale(0.12 -0.12)">
     <use xlink:href="#DejaVuSans-54"/>
     <use xlink:href="#DejaVuSans-65" x="44.083984"/>
     <use xlink:href="#DejaVuSans-73" x="105.607422"/>
     <use xlink:href="#DejaVuSans-74" x="157.707031"/>
     <use xlink:href="#DejaVuSans-20" x="196.916016"/>
     <use xlink:href="#DejaVuSans-64" x="228.703125"/>
     <use xlink:href="#DejaVuSans-61" x="292.179688"/>
     <use xlink:href="#DejaVuSans-74" x="353.458984"/>
     <use xlink:href="#DejaVuSans-61" x="392.667969"/>
     <use xlink:href="#DejaVuSans-73" x="453.947266"/>
     <use xlink:href="#DejaVuSans-65" x="506.046875"/>
     <use xlink:href="#DejaVuSans-74" x="567.570312"/>
    </g>
    <!-- ARToolKit 4x4 -->
    <g transform="translate(698.50125 29.7555)scale(0.12 -0.12)">
     <defs>
      <path id="DejaVuSans-4b" d="M 628 4666 
L 1259 4666 
L 1259 2694 
L 3353 4666 
L 4166 4666 
L 1850 2491 
L 4331 0 
L 3500 0 
L 1259 2247 
L 1259 0 
L 628 0 
L 628 4666 
z
" transform="scale(0.015625)"/>
     </defs>
     <use xlink:href="#DejaVuSans-41"/>
     <use xlink:href="#DejaVuSans-52" x="68.408203"/>
     <use xlink:href="#DejaVuSans-54" x="130.640625"/>
     <use xlink:href="#DejaVuSans-6f" x="174.724609"/>
     <use xlink:href="#DejaVuSans-6f" x="235.90625"/>
     <use xlink:href="#DejaVuSans-6c" x="297.087891"/>
     <use xlink:href="#DejaVuSans-4b" x="324.871094"/>
     <use xlink:href="#DejaVuSans-69" x="390.447266"/>
     <use xlink:href="#DejaVuSans-74" x="418.230469"/>
     <use xlink:href="#DejaVuSans-20" x="457.439453"/>
     <use xlink:href="#DejaVuSans-34" x="489.226562"/>
     <use xlink:href="#DejaVuSans-78" x="552.849609"/>
     <use xlink:href="#DejaVuSans-34" x="612.029297"/>
    </g>
   </g>
   <g id="legend_3">
    <g id="patch_173">
     <path d="M 761.795312 73.11175 
L 842.590625 73.11175 
Q 844.590625 73.11175 844.590625 71.11175 
L 844.590625 42.7555 
Q 844.590625 40.7555 842.590625 40.7555 
L 761.795312 40.7555 
Q 759.795312 40.7555 759.795312 42.7555 
L 759.795312 71.11175 
Q 759.795312 73.11175 761.795312 73.11175 
z
" style="fill: #ffffff; opacity: 0.8; stroke: #cccccc; stroke-linejoin: miter"/>
    </g>
    <g id="patch_174">
     <path d="M 763.795312 52.353938 
L 783.795312 52.353938 
L 783.795312 45.353938 
L 763.795312 45.353938 
z
" style="fill: #66c2a5"/>
    </g>
    <g id="text_53">
     <!-- HR image -->
     <g transform="translate(791.795312 52.353938)scale(0.1 -0.1)">
      <use xlink:href="#DejaVuSans-48"/>
      <use xlink:href="#DejaVuSans-52" x="75.195312"/>
      <use xlink:href="#DejaVuSans-20" x="144.677734"/>
      <use xlink:href="#DejaVuSans-69" x="176.464844"/>
      <use xlink:href="#DejaVuSans-6d" x="204.248047"/>
      <use xlink:href="#DejaVuSans-61" x="301.660156"/>
      <use xlink:href="#DejaVuSans-67" x="362.939453"/>
      <use xlink:href="#DejaVuSans-65" x="426.416016"/>
     </g>
    </g>
    <g id="patch_175">
     <path d="M 763.795312 67.032062 
L 783.795312 67.032062 
L 783.795312 60.032062 
L 763.795312 60.032062 
z
" style="fill: #fc8d62"/>
    </g>
    <g id="text_54">
     <!-- SR image -->
     <g transform="translate(791.795312 67.032062)scale(0.1 -0.1)">
      <use xlink:href="#DejaVuSans-53"/>
      <use xlink:href="#DejaVuSans-52" x="63.476562"/>
      <use xlink:href="#DejaVuSans-20" x="132.958984"/>
      <use xlink:href="#DejaVuSans-69" x="164.746094"/>
      <use xlink:href="#DejaVuSans-6d" x="192.529297"/>
      <use xlink:href="#DejaVuSans-61" x="289.941406"/>
      <use xlink:href="#DejaVuSans-67" x="351.220703"/>
      <use xlink:href="#DejaVuSans-65" x="414.697266"/>
     </g>
    </g>
   </g>
  </g>
 </g>
 <defs>
  <clipPath id="p3eb9dd29f5">
   <rect x="59.690625" y="35.7555" width="221.1" height="204.4"/>
  </clipPath>
  <clipPath id="pd09510d85e">
   <rect x="344.090625" y="35.7555" width="221.1" height="204.4"/>
  </clipPath>
  <clipPath id="pec41d1fc21">
   <rect x="628.490625" y="35.7555" width="221.1" height="204.4"/>
  </clipPath>
 </defs>
</svg>
